<svg class="animated" id="freepik_stories-quitting-a-job" xmlns="http://www.w3.org/2000/svg" viewBox="0 0 750 500" version="1.1" xmlns:xlink="http://www.w3.org/1999/xlink" xmlns:svgjs="http://svgjs.com/svgjs"><style>svg#freepik_stories-quitting-a-job:not(.animated) .animable {opacity: 0;}svg#freepik_stories-quitting-a-job.animated #freepik--background-complete--inject-33 {animation: 1s 1 forwards cubic-bezier(.36,-0.01,.5,1.38) fadeIn;animation-delay: 0s;}svg#freepik_stories-quitting-a-job.animated #freepik--Character--inject-33 {animation: 1s 1 forwards cubic-bezier(.36,-0.01,.5,1.38) fadeIn;animation-delay: 0s;}svg#freepik_stories-quitting-a-job.animated #freepik--Plant--inject-33 {animation: 1s 1 forwards cubic-bezier(.36,-0.01,.5,1.38) lightSpeedLeft;animation-delay: 0s;}svg#freepik_stories-quitting-a-job.animated #freepik--Desk--inject-33 {animation: 1s 1 forwards cubic-bezier(.36,-0.01,.5,1.38) slideLeft;animation-delay: 0s;}svg#freepik_stories-quitting-a-job.animated #freepik--pencil-cup--inject-33 {animation: 1s 1 forwards cubic-bezier(.36,-0.01,.5,1.38) zoomOut;animation-delay: 0s;}svg#freepik_stories-quitting-a-job.animated #freepik--Device--inject-33 {animation: 1s 1 forwards cubic-bezier(.36,-0.01,.5,1.38) lightSpeedRight;animation-delay: 0s;}svg#freepik_stories-quitting-a-job.animated #freepik--Calendar--inject-33 {animation: 1s 1 forwards cubic-bezier(.36,-0.01,.5,1.38) slideUp;animation-delay: 0s;}            @keyframes fadeIn {                0% {                    opacity: 0;                }                100% {                    opacity: 1;                }            }                    @keyframes lightSpeedLeft {              from {                transform: translate3d(-50%, 0, 0) skewX(20deg);                opacity: 0;              }              60% {                transform: skewX(-10deg);                opacity: 1;              }              80% {                transform: skewX(2deg);              }              to {                opacity: 1;                transform: translate3d(0, 0, 0);              }            }                    @keyframes slideLeft {                0% {                    opacity: 0;                    transform: translateX(-30px);                }                100% {                    opacity: 1;                    transform: translateX(0);                }            }                    @keyframes zoomOut {                0% {                    opacity: 0;                    transform: scale(1.5);                }                100% {                    opacity: 1;                    transform: scale(1);                }            }                    @keyframes lightSpeedRight {              from {                transform: translate3d(50%, 0, 0) skewX(-20deg);                opacity: 0;              }              60% {                transform: skewX(10deg);                opacity: 1;              }              80% {                transform: skewX(-2deg);              }              to {                opacity: 1;                transform: translate3d(0, 0, 0);              }            }                    @keyframes slideUp {                0% {                    opacity: 0;                    transform: translateY(30px);                }                100% {                    opacity: 1;                    transform: inherit;                }            }        </style><g id="freepik--background-complete--inject-33" class="animable" style="transform-origin: 385.625px 251.195px;"><polygon points="334.49 410.05 334.49 463.29 412.34 463.29 498.21 463.29 498.21 410.05 334.49 410.05" style="fill: rgb(245, 245, 245); transform-origin: 416.35px 436.67px;" id="elu7nuefv7dqp" class="animable"></polygon><polygon points="327.62 395.17 327.62 410.05 503.93 410.05 503.93 395.17 412.34 395.17 327.62 395.17" style="fill: rgb(224, 224, 224); transform-origin: 415.775px 402.61px;" id="elehyx9cb029" class="animable"></polygon><polygon points="415.77 463.29 498.21 463.29 498.21 410.05 503.93 410.05 503.93 395.17 412.34 395.17 412.34 408.67 415.77 463.29" style="fill: rgb(224, 224, 224); transform-origin: 458.135px 429.23px;" id="eluy3ee0hwbz" class="animable"></polygon><rect x="357.38" y="418.63" width="33.2" height="8.01" style="fill: rgb(224, 224, 224); transform-origin: 373.98px 422.635px;" id="elm03uh4snjr" class="animable"></rect><rect x="353.11" y="436.67" width="42.63" height="16.92" style="fill: rgb(255, 255, 255); transform-origin: 374.425px 445.13px;" id="elvzwaw07n2w" class="animable"></rect><polygon points="359.67 342 359.67 395.24 437.53 395.24 523.4 395.24 523.4 342 359.67 342" style="fill: rgb(245, 245, 245); transform-origin: 441.535px 368.62px;" id="elmsc0vn2x12h" class="animable"></polygon><polygon points="352.81 327.11 352.81 342 529.12 342 529.12 327.11 437.53 327.11 352.81 327.11" style="fill: rgb(224, 224, 224); transform-origin: 440.965px 334.555px;" id="eln4tkc58ous" class="animable"></polygon><polygon points="440.96 395.24 523.4 395.24 523.4 342 529.12 342 529.12 327.11 437.53 327.11 437.53 340.62 440.96 395.24" style="fill: rgb(224, 224, 224); transform-origin: 483.325px 361.175px;" id="el2fzxujgrj7k" class="animable"></polygon><rect x="382.57" y="350.58" width="33.2" height="8.01" style="fill: rgb(224, 224, 224); transform-origin: 399.17px 354.585px;" id="el0igrc0v3y2t" class="animable"></rect><rect x="378.3" y="368.62" width="42.63" height="16.92" style="fill: rgb(255, 255, 255); transform-origin: 399.615px 377.08px;" id="elnhwjf97bh4i" class="animable"></rect><path d="M240,60.79a.7.7,0,0,1-.26-.08l-.76-.29-2.87-1.2-10.53-4.51L191,39.63l-1.2-.53H190L156.07,53.61,145.8,57.92,143,59.07a9.75,9.75,0,0,1-1,.36A6.17,6.17,0,0,1,143,59l2.76-1.25,10.18-4.49,33.86-14.68.12-.06.13.06,1.2.52,34.55,15.26L236.2,59,239,60.3l.73.35C239.92,60.74,240,60.78,240,60.79Z" style="fill: rgb(224, 224, 224); transform-origin: 191px 49.655px;" id="elomgq6gtspoq" class="animable"></path><rect x="71.61" y="55.82" width="222.4" height="166.52" style="fill: rgb(224, 224, 224); transform-origin: 182.81px 139.08px;" id="eli7eqqklgrhe" class="animable"></rect><rect x="79.39" y="63.56" width="207.68" height="151.93" style="fill: rgb(250, 250, 250); transform-origin: 183.23px 139.525px;" id="elq1kwemofk2" class="animable"></rect><path d="M125.26,129.94s.21,25.51,1.51,33.29l32-1.51S156,136.65,157,129.94Z" style="fill: rgb(224, 224, 224); transform-origin: 142.015px 146.585px;" id="el70ulele890u" class="animable"></path><path d="M141,133.55h.46a7.46,7.46,0,0,1,1.33.06,7.23,7.23,0,0,1,2,.61,6.54,6.54,0,0,1,2.22,1.75,7.76,7.76,0,0,1,1.53,3.08,7.42,7.42,0,0,1-.34,3.95,11.58,11.58,0,0,1-.89,2,18.66,18.66,0,0,0-1,2,17.24,17.24,0,0,0-1.29,4.54l0,.11h-.1l-3.16.05-3.31,0h-.12v-.12a9.52,9.52,0,0,0-1.54-4.37c-.38-.65-.8-1.27-1.2-1.89a20.37,20.37,0,0,1-1.12-1.83,6.19,6.19,0,0,1-.5-3.9,8.34,8.34,0,0,1,1.23-3.19,6.13,6.13,0,0,1,2.08-1.87,8.16,8.16,0,0,1,2-.76,7.42,7.42,0,0,1,1.31-.21l.34,0H141l-.12,0-.34,0a11.12,11.12,0,0,0-1.29.25,7.81,7.81,0,0,0-1.92.79,6.11,6.11,0,0,0-2,1.85,8.23,8.23,0,0,0-1.17,3.13,6,6,0,0,0,.5,3.77,17.77,17.77,0,0,0,1.12,1.81c.39.61.82,1.23,1.21,1.89a9.67,9.67,0,0,1,1.58,4.49l-.12-.12,3.31-.05,3.16,0-.12.11a17.19,17.19,0,0,1,1.32-4.61,21,21,0,0,1,1-2,11.22,11.22,0,0,0,.89-1.94,7.23,7.23,0,0,0,.35-3.84,7.49,7.49,0,0,0-1.47-3,6.52,6.52,0,0,0-2.14-1.74,7.48,7.48,0,0,0-2-.63,8.49,8.49,0,0,0-1.32-.11H141Z" style="fill: rgb(255, 255, 255); transform-origin: 141.259px 142.621px;" id="elws8nv8ksrtq" class="animable"></path><path d="M142.66,151.32a.65.65,0,0,1,0-.1c0-.07,0-.17,0-.3s-.1-.65-.18-1.14c-.14-1-.35-2.43-.5-4.22,0-.45-.06-.92-.08-1.41s0-1,0-1.52a4.32,4.32,0,0,1,.36-1.6,2.47,2.47,0,0,1,1.22-1.23,1.63,1.63,0,0,1,1.74.34,1.23,1.23,0,0,1,.38.87,1.57,1.57,0,0,1-.33.92,2.12,2.12,0,0,1-.77.62,3.92,3.92,0,0,1-.95.31,11.26,11.26,0,0,1-2,.24,12.39,12.39,0,0,1-2-.1,3.53,3.53,0,0,1-1-.28,2.33,2.33,0,0,1-.81-.57,1.9,1.9,0,0,1-.46-.86,1.38,1.38,0,0,1,.11-.94,1.25,1.25,0,0,1,.67-.65,1.15,1.15,0,0,1,.91,0,1.67,1.67,0,0,1,.68.58,2.4,2.4,0,0,1,.34.79,9.36,9.36,0,0,1,.16,1.63c.06,1.06.11,2,.15,2.93.09,1.79.17,3.24.22,4.25,0,.49,0,.88,0,1.15v.4a.82.82,0,0,0,0-.1c0-.07,0-.17,0-.3s0-.65-.07-1.15c-.06-1-.14-2.45-.25-4.24,0-.9-.1-1.88-.16-2.93a10,10,0,0,0-.17-1.62,2.13,2.13,0,0,0-.32-.76,1.73,1.73,0,0,0-.65-.55,1.07,1.07,0,0,0-.84,0,1.17,1.17,0,0,0-.61.61,1.33,1.33,0,0,0-.11.88,1.84,1.84,0,0,0,.44.81,2.85,2.85,0,0,0,1.71.82,11.31,11.31,0,0,0,2,.1,12,12,0,0,0,2-.23,3.77,3.77,0,0,0,.93-.31,1.93,1.93,0,0,0,.73-.59,1.44,1.44,0,0,0,.31-.86,1.11,1.11,0,0,0-.34-.81,1.54,1.54,0,0,0-1.64-.31,2.36,2.36,0,0,0-1.18,1.17,4.37,4.37,0,0,0-.36,1.57c0,.52,0,1,0,1.52s0,1,.07,1.41c.14,1.78.34,3.22.47,4.22.07.49.12.87.16,1.14l0,.3A.45.45,0,0,0,142.66,151.32Z" style="fill: rgb(255, 255, 255); transform-origin: 141.421px 145.518px;" id="elp1p8xbxsrya" class="animable"></path><path d="M138.44,151.49a8.51,8.51,0,0,1,.09,1.06l.14,2.77,0-.06,2.16,2.48-.11-.05,2.49-.14-.11,0,1.24-1.51.62-.76,0,.1c0-1.46-.07-2.84-.09-4.1l.13.13-4.65,0H139l-.51,0a1.84,1.84,0,0,1,.45,0l1.31-.07,4.73-.19h.14v.13c0,1.26.08,2.64.12,4.1v.06l0,0-.62.76c-.43.51-.84,1-1.24,1.51l0,.05h-.07l-2.49.12h-.07l0-.05-2.11-2.51,0,0v0c0-1.1,0-2.05,0-2.84S138.43,151.47,138.44,151.49Z" style="fill: rgb(255, 255, 255); transform-origin: 141.84px 154.515px;" id="eljbddepicxt8" class="animable"></path><path d="M144.87,155.09l-.24-.1a5.39,5.39,0,0,0-.64-.25,6.4,6.4,0,0,0-2.25-.35,6.61,6.61,0,0,0-2.22.48,4.8,4.8,0,0,0-.63.3l-.23.11a1.19,1.19,0,0,1,.21-.15,6.6,6.6,0,0,1,.62-.32,6,6,0,0,1,2.25-.52,6.16,6.16,0,0,1,2.27.38,4.08,4.08,0,0,1,.64.29Z" style="fill: rgb(255, 255, 255); transform-origin: 141.765px 154.784px;" id="elyq3th56oq5" class="animable"></path><path d="M144.87,154.1l-.24-.1a5.88,5.88,0,0,0-.64-.26,6.46,6.46,0,0,0-2.25-.34,6.16,6.16,0,0,0-2.23.48,5.49,5.49,0,0,0-.62.29l-.23.11a1,1,0,0,1,.21-.14,4.67,4.67,0,0,1,.62-.33,6,6,0,0,1,4.52-.14,5.29,5.29,0,0,1,.64.29A.83.83,0,0,1,144.87,154.1Z" style="fill: rgb(255, 255, 255); transform-origin: 141.765px 153.787px;" id="elzko1agym9y8" class="animable"></path><path d="M144.81,153.15l-.24-.1c-.15-.07-.36-.16-.64-.26a6.3,6.3,0,0,0-4.47.14c-.27.11-.49.22-.63.29l-.23.12s.07-.06.21-.15a6.26,6.26,0,0,1,.62-.33,6.18,6.18,0,0,1,2.25-.51,6,6,0,0,1,2.27.38,4.22,4.22,0,0,1,.64.28A.83.83,0,0,1,144.81,153.15Z" style="fill: rgb(255, 255, 255); transform-origin: 141.705px 152.844px;" id="elyavnniyv4uh" class="animable"></path><path d="M89.63,88.25s.22,25.5,1.51,33.29l32-1.52S120.32,95,121.4,88.25Z" style="fill: rgb(235, 235, 235); transform-origin: 106.385px 104.895px;" id="elmhf82ib1n2j" class="animable"></path><path d="M116.58,99c0,.18-4.78.6-10.71,1s-10.74.51-10.75.33,4.78-.6,10.71-1S116.57,98.79,116.58,99Z" style="fill: rgb(255, 255, 255); transform-origin: 105.85px 99.6584px;" id="eld3lussnmy7g" class="animable"></path><path d="M116.59,104.36c0,.18-4.79.61-10.71,1s-10.74.51-10.75.34,4.78-.61,10.71-1S116.58,104.19,116.59,104.36Z" style="fill: rgb(255, 255, 255); transform-origin: 105.86px 105.03px;" id="elg031thrrku4" class="animable"></path><path d="M111.15,109.67c0,.17-2.71.48-6.09.68s-6.13.23-6.14.05,2.72-.47,6.1-.68S111.14,109.5,111.15,109.67Z" style="fill: rgb(255, 255, 255); transform-origin: 105.035px 110.035px;" id="el4gjdwjbjfc8" class="animable"></path><path d="M88.12,163.29s.21,25.5,1.51,33.28l32-1.51s-2.81-25.07-1.73-31.77Z" style="fill: rgb(235, 235, 235); transform-origin: 104.875px 179.93px;" id="elw578f6ws4e" class="animable"></path><path d="M115.07,174c0,.17-4.79.6-10.71,1s-10.75.5-10.76.33,4.79-.6,10.72-1S115.06,173.83,115.07,174Z" style="fill: rgb(255, 255, 255); transform-origin: 104.335px 174.665px;" id="elencf5ehl9l" class="animable"></path><path d="M115.08,179.4c0,.18-4.79.6-10.72,1s-10.74.51-10.75.33,4.79-.6,10.72-.95S115.07,179.23,115.08,179.4Z" style="fill: rgb(255, 255, 255); transform-origin: 104.345px 180.076px;" id="elno6rhuwicm8" class="animable"></path><path d="M109.64,184.71c0,.17-2.72.47-6.1.68s-6.12.23-6.13.05,2.72-.48,6.1-.68S109.63,184.53,109.64,184.71Z" style="fill: rgb(255, 255, 255); transform-origin: 103.525px 185.077px;" id="elh8a410mfxrv" class="animable"></path><polygon points="175.54 95.01 178.71 168.57 270.54 169.68 266.42 95.98 175.54 95.01" style="fill: rgb(235, 235, 235); transform-origin: 223.04px 132.345px;" id="elddijr6usedk" class="animable"></polygon><rect x="174.47" y="94.48" width="91.22" height="68.88" style="fill: rgb(245, 245, 245); transform-origin: 220.08px 128.92px;" id="el4sduzhv3qej" class="animable"></rect><path d="M265.7,163.37s0-.45,0-1.28,0-2.08,0-3.68c0-3.23,0-7.93-.06-13.94,0-12-.08-29.19-.14-50l.26.26-91.22.06h0l.31-.32c0,24.78,0,48.23,0,68.89l-.28-.29,65.8.14,18.71.08,5,0,1.28,0a4,4,0,0,1,.45,0h-.42l-1.25,0-4.92,0-18.65.08-66,.14h-.29v-.28c0-20.66,0-44.11,0-68.89v-.31h.32l91.22,0H266v.26c-.06,20.86-.11,38.11-.14,50.15,0,6-.05,10.67-.06,13.89,0,1.57,0,2.78,0,3.62S265.7,163.37,265.7,163.37Z" style="fill: rgb(224, 224, 224); transform-origin: 220.14px 128.77px;" id="elnfrcpw9p62a" class="animable"></path><rect x="185.48" y="109.07" width="36.98" height="46.54" style="fill: rgb(245, 245, 245); transform-origin: 203.97px 132.34px;" id="elwobjjo5mfvp" class="animable"></rect><path d="M222.46,155.62a1.35,1.35,0,0,1,0-.24v-.66c0-.61,0-1.46,0-2.55,0-2.25,0-5.47-.07-9.55,0-8.19-.08-19.78-.14-33.54l.28.28-37,0,.31-.31v12.67q0,6.19,0,12.07c0,7.82,0,15.15,0,21.8l-.26-.27,26.77.14,7.52.07,2,0,.7,0-.65,0-1.94,0-7.45.07-26.94.14h-.26v-.26c0-6.65,0-14,0-21.8q0-5.86,0-12.07V109.08l.31-.32,37,0h.28v.29c-.06,13.84-.11,25.49-.14,33.73,0,4-.06,7.25-.07,9.48,0,1.06,0,1.89,0,2.49,0,.26,0,.46,0,.63A.85.85,0,0,1,222.46,155.62Z" style="fill: rgb(224, 224, 224); transform-origin: 204.125px 132.25px;" id="el64eunup1g7p" class="animable"></path><rect x="186.9" y="98.43" width="70.87" height="6.71" style="fill: rgb(245, 245, 245); transform-origin: 222.335px 101.785px;" id="elfmwfjk34sue" class="animable"></rect><path d="M257.77,105.13a2.93,2.93,0,0,1,0-.46c0-.32,0-.75,0-1.3,0-1.16,0-2.82-.07-4.94l.13.12c-12,.11-39.2.19-70.87.19h0c.62-.63.17-.17.31-.31h0v6.68l-.31-.31,50.23.13,15.08.09,4.1,0,1.08,0,.38,0a1.23,1.23,0,0,1-.34,0l-1,0-4,0-15,.09-50.46.13h-.32v-7h0l.32-.32h0c31.67,0,58.91.08,70.87.19h.12v.13c0,2.15-.05,3.83-.07,5,0,.54,0,1,0,1.28S257.77,105.14,257.77,105.13Z" style="fill: rgb(224, 224, 224); transform-origin: 222.365px 101.58px;" id="elgnj0l4y893t" class="animable"></path><rect x="226.99" y="109.07" width="30.78" height="28.05" style="fill: rgb(245, 245, 245); transform-origin: 242.38px 123.095px;" id="elk7qbnvlnb8" class="animable"></rect><path d="M257.77,137.12a4,4,0,0,1,0-.54c0-.39,0-.89,0-1.52,0-1.37,0-3.29-.07-5.72,0-4.93-.08-11.9-.14-20.26l.27.26-30.78,0,.31-.31h0v7.51c0,2.46,0,4.88,0,7.24,0,4.7,0,9.16,0,13.27l-.27-.27,22.2.14,6.3.07,1.68,0,.6,0a2,2,0,0,1-.54,0l-1.63,0-6.23.07L227,137.4h-.28v-.28c0-4.11,0-8.57,0-13.27v-7.24c0-1.23,0-2.48,0-3.74V109.1h0c-.28.28.38-.39.32-.32l30.78,0H258v.27c0,8.43-.1,15.46-.13,20.43,0,2.4-.06,4.3-.07,5.66,0,.61,0,1.09,0,1.47A2.62,2.62,0,0,1,257.77,137.12Z" style="fill: rgb(224, 224, 224); transform-origin: 242.325px 123.087px;" id="elizgxchibgvj" class="animable"></path><rect x="226.99" y="141.52" width="30.78" height="14.09" style="fill: rgb(245, 245, 245); transform-origin: 242.38px 148.565px;" id="eljyips9gz9jj" class="animable"></rect><path d="M257.77,155.62a6.79,6.79,0,0,1,0-1c0-.71,0-1.65-.06-2.83,0-2.48-.07-6-.12-10.24l.23.23-30.78.09.31-.32h0v7.26c0,2.35,0,4.64,0,6.83l-.29-.3,22,.14,6.41.08,1.73,0a3.12,3.12,0,0,1,.63,0,3.67,3.67,0,0,1-.56,0l-1.67,0-6.34.08-22.21.14h-.3v-.29c0-2.19,0-4.48,0-6.83,0-1.18,0-2.38,0-3.59v-3.67h0l.32-.31,30.78.08H258v.23c-.05,4.33-.09,7.86-.12,10.38,0,1.16,0,2.09-.06,2.78A8,8,0,0,1,257.77,155.62Z" style="fill: rgb(224, 224, 224); transform-origin: 242.375px 148.435px;" id="elg6kuv92qv0p" class="animable"></path><path d="M221.54,109.16C210.1,125,196.93,139.8,185.48,155.62" style="fill: rgb(255, 255, 255); transform-origin: 203.51px 132.39px;" id="eloolocwrs5zd" class="animable"></path><path d="M185.48,155.62a1.92,1.92,0,0,1,.3-.52c.26-.39.58-.86,1-1.42.84-1.23,2.11-3,3.7-5.11,3.18-4.27,7.72-10,12.82-16.38s9.69-12.06,12.95-16.26l3.86-5,1.06-1.35c.25-.3.39-.46.4-.44a1.79,1.79,0,0,1-.3.51l-1,1.42c-.85,1.23-2.12,3-3.71,5.11-3.17,4.27-7.72,10.06-12.81,16.38s-9.69,12.06-13,16.26c-1.58,2-2.89,3.73-3.86,5l-1.06,1.35A2.28,2.28,0,0,1,185.48,155.62Z" style="fill: rgb(224, 224, 224); transform-origin: 203.525px 132.379px;" id="el3bf8bm92qvg" class="animable"></path><line x1="185.48" y1="109.07" x2="222.46" y2="155.62" style="fill: rgb(255, 255, 255); transform-origin: 203.97px 132.345px;" id="elbeuuccr6dgi" class="animable"></line><path d="M222.46,155.62c-.14.1-8.52-10.23-18.74-23.08s-18.38-23.36-18.24-23.47,8.52,10.23,18.74,23.08S222.6,155.51,222.46,155.62Z" style="fill: rgb(224, 224, 224); transform-origin: 203.97px 132.345px;" id="el2k8jhpgar5z" class="animable"></path><path d="M178.71,109.17a5.79,5.79,0,1,1-5.79-5.78A5.79,5.79,0,0,1,178.71,109.17Z" style="fill: rgb(224, 224, 224); transform-origin: 172.92px 109.18px;" id="eljefcgulb88a" class="animable"></path><path d="M273.33,95.13a5.79,5.79,0,1,1-5.79-5.78A5.79,5.79,0,0,1,273.33,95.13Z" style="fill: rgb(224, 224, 224); transform-origin: 267.54px 95.14px;" id="elpb5zwqprlxh" class="animable"></path><polygon points="580.21 226.68 582.54 219.66 578.44 219.68 577.8 226.23 580.21 226.68" style="fill: rgb(224, 224, 224); transform-origin: 580.17px 223.17px;" id="elw48b2hjvqni" class="animable"></polygon><polyline points="586.15 226.72 589.75 252.14 600.12 285.96 534.29 273.66 562.23 245.67 574.28 224.5 586.15 226.72" style="fill: rgb(224, 224, 224); transform-origin: 567.205px 255.23px;" id="elgeiolt8hy3g" class="animable"></polyline><path d="M683.28,463.87c0-.35.05-.69.05-1.05a21,21,0,1,0-42.07,0c0,.36,0,.7,0,1.05Z" style="fill: rgb(224, 224, 224); transform-origin: 662.295px 452.828px;" id="eltr0hzf8nwa" class="animable"></path><path d="M662.3,442.62a.83.83,0,0,0,.8-.62L691,335.76a.84.84,0,0,0-1.62-.43L661.49,441.57a.84.84,0,0,0,.81,1.05Z" style="fill: rgb(224, 224, 224); transform-origin: 676.239px 388.69px;" id="elb5kmklm9ll5" class="animable"></path><path d="M669.66,445.25a.84.84,0,0,0,.81-.62l27.87-106.24a.83.83,0,0,0-.6-1,.84.84,0,0,0-1,.59L668.85,444.2a.83.83,0,0,0,.6,1Z" style="fill: rgb(224, 224, 224); transform-origin: 683.595px 391.309px;" id="ellpsb5xbgjhk" class="animable"></path><path d="M699.64,336.6a5.26,5.26,0,1,1-5.26-5.26A5.27,5.27,0,0,1,699.64,336.6Z" style="fill: rgb(224, 224, 224); transform-origin: 694.38px 336.6px;" id="elyd1rnm27hjp" class="animable"></path><polygon points="697.89 338.36 699.34 337.54 640.6 232.9 574.25 237 574.35 238.67 639.65 234.63 697.89 338.36" style="fill: rgb(224, 224, 224); transform-origin: 636.795px 285.63px;" id="elbe6bex7cu6l" class="animable"></polygon><g id="elgj7ezqhdnoj"><rect x="662.55" y="228.16" width="1.67" height="118.32" style="fill: rgb(224, 224, 224); transform-origin: 663.385px 287.32px; transform: rotate(-29.21deg);" class="animable"></rect></g><path d="M641.8,237.51a4.73,4.73,0,1,1-2.17-6.33A4.73,4.73,0,0,1,641.8,237.51Z" style="fill: rgb(224, 224, 224); transform-origin: 637.552px 235.429px;" id="elt36svzzryio" class="animable"></path></g><g id="freepik--Character--inject-33" class="animable" style="transform-origin: 190.369px 266.659px;"><path d="M248.77,172.81a20.9,20.9,0,0,0,26.46-20.62c-.14-6.05-2.88-12.22-1-18,1.3-4,4.61-7,5.72-11.05,1.66-6-2-12-5.41-17.19-2.22-3.31-4.48-6.67-7.57-9.18s-7.19-4.11-11.08-3.28" style="fill: rgb(38, 50, 56); transform-origin: 264.566px 133.417px;" id="elztip6jmee6b" class="animable"></path><path d="M192.93,94c.33,4.57-2.69,8.66-5.73,12.09s-6.43,7-7.08,11.54c-1.17,8,6.7,15.5,5.08,23.46-.87,4.27-4.36,7.7-5,12s1.64,8.25,4.4,11.42,6.15,5.82,8.6,9.25c0,0,5.1,8.36,20.79,3" style="fill: rgb(38, 50, 56); transform-origin: 196.995px 136.277px;" id="ellbusxe209xj" class="animable"></path><path d="M263.2,101c.11-4.14-3.72-7.35-7.58-8.87s-8.15-2.09-11.59-4.4c-3.05-2.05-5.1-5.25-7.68-7.87a25.53,25.53,0,0,0-42.94,11.72c-1.48,5.9-.47,12.88,4.19,16.81C203,113,211,112,217.93,110.54s14.76-2.81,20.54,1.26c3.48,2.45,5.48,6.43,7.61,10.13s4.81,7.45,8.83,8.84,9.5-1,9.66-5.27" style="fill: rgb(38, 50, 56); transform-origin: 228.674px 101.712px;" id="eljkqfb13r7v" class="animable"></path><path d="M246.84,101.88a6.94,6.94,0,0,1,6.2,7.06h0l-4.14,93.7c-.18,11.07-16.35,17.28-28.2,17h0c-12-.28-12.35-6.15-12.5-16.68-.25-17.59-.23-24.19-.24-24.09s-15.11-2.54-18.2-22.28c-1.54-9.81-1-25.9-.15-39,.77-11.83,8.64-26.34,20.43-25.06Z" style="fill: rgb(255, 190, 157); transform-origin: 220.912px 156.05px;" id="el63xw4zbmlqc" class="animable"></path><path d="M194.48,130.34a2.54,2.54,0,0,0,2.43,2.56,2.42,2.42,0,0,0,2.61-2.28,2.53,2.53,0,0,0-2.43-2.56A2.42,2.42,0,0,0,194.48,130.34Z" style="fill: rgb(38, 50, 56); transform-origin: 197px 130.48px;" id="elmg9oqy11gv" class="animable"></path><path d="M193.08,124.66c.31.33,2.23-1.09,5-1.07s4.71,1.37,5,1c.14-.15-.18-.74-1.05-1.38a6.89,6.89,0,0,0-4-1.24,6.6,6.6,0,0,0-3.94,1.26C193.21,123.91,192.93,124.51,193.08,124.66Z" style="fill: rgb(38, 50, 56); transform-origin: 198.077px 123.34px;" id="elo9c0pvsk2o" class="animable"></path><path d="M220.91,131a2.53,2.53,0,0,0,2.43,2.56,2.42,2.42,0,0,0,2.62-2.27,2.53,2.53,0,0,0-2.43-2.56A2.42,2.42,0,0,0,220.91,131Z" style="fill: rgb(38, 50, 56); transform-origin: 223.435px 131.145px;" id="elwsu7mxdi1ia" class="animable"></path><path d="M219.84,126.5c.31.33,2.23-1.08,4.95-1.07s4.72,1.38,5,1c.14-.15-.17-.75-1.05-1.38a7,7,0,0,0-4-1.25,6.67,6.67,0,0,0-3.94,1.27C220,125.76,219.69,126.35,219.84,126.5Z" style="fill: rgb(38, 50, 56); transform-origin: 224.813px 125.175px;" id="elinr7vjdq2q" class="animable"></path><path d="M209.91,146.67c0-.16-1.67-.45-4.42-.81-.69-.07-1.35-.21-1.46-.69a3.46,3.46,0,0,1,.46-2.06l2.07-5.28c2.87-7.54,4.95-13.73,4.65-13.84s-2.88,5.9-5.75,13.43l-2,5.32a4,4,0,0,0-.37,2.73,1.79,1.79,0,0,0,1.14,1,5,5,0,0,0,1.18.16C208.19,146.81,209.9,146.82,209.91,146.67Z" style="fill: rgb(38, 50, 56); transform-origin: 207.118px 135.381px;" id="elacxdy3c01uu" class="animable"></path><path d="M208,178.88a50.26,50.26,0,0,0,26.44-7s-6.7,13.55-26.44,11.66Z" style="fill: rgb(235, 153, 110); transform-origin: 221.22px 177.8px;" id="elrnw64t197vq" class="animable"></path><path d="M211.05,153.23a4.9,4.9,0,0,1,4.4-1.81,4.45,4.45,0,0,1,3.09,1.67,2.83,2.83,0,0,1,.21,3.24,3.3,3.3,0,0,1-3.57.9,10.37,10.37,0,0,1-3.48-2.09,3,3,0,0,1-.77-.81.92.92,0,0,1,0-1" style="fill: rgb(235, 153, 110); transform-origin: 214.972px 154.405px;" id="elgbud28bj9am" class="animable"></path><path d="M220.46,118.92c.15.77,2.9.83,6,1.68s5.52,2.1,6,1.5c.24-.28-.1-1-1-1.9a10.25,10.25,0,0,0-4.31-2.27,10.43,10.43,0,0,0-4.86-.16C221.07,118.07,220.4,118.56,220.46,118.92Z" style="fill: rgb(38, 50, 56); transform-origin: 226.495px 119.907px;" id="elq0ryx5n2hpg" class="animable"></path><path d="M194,116c.44.65,2.35.13,4.6.24s4.14.67,4.61.05c.22-.3-.05-.94-.84-1.57a6.65,6.65,0,0,0-7.43-.23C194.14,115.07,193.84,115.69,194,116Z" style="fill: rgb(38, 50, 56); transform-origin: 198.621px 115.022px;" id="el2t3k5imxtm2" class="animable"></path><path d="M260.62,166.79a17.53,17.53,0,0,1-20.84-19.38c.61-4.84,3.22-9.77,1.55-14.36-2.23-6.06-10.72-7.92-13-14-1.31-3.52-.13-7.63-1.62-11.08-1.4-3.24-4.81-5.11-8.12-6.31s-6.88-2-9.67-4.19-4.52-6.25-2.72-9.29a187,187,0,0,1,43.1,10.47c3.22,1.21,6.6,2.65,8.51,5.51,2,3,1.91,6.94,1.75,10.58q-1.24,26.56-2.48,53.13" style="fill: rgb(38, 50, 56); transform-origin: 233.042px 128.025px;" id="elpwx438nif5p" class="animable"></path><path d="M271,102.69a1.57,1.57,0,0,1,.33.81,3,3,0,0,1-.76,2.37,5,5,0,0,1-3.53,1.78,11.45,11.45,0,0,1-5-1.49,13.86,13.86,0,0,0-5.75-1.7,29.66,29.66,0,0,0-7,.63,47.7,47.7,0,0,1-7.88,1,11.36,11.36,0,0,1-8.07-3,23.33,23.33,0,0,1-4.66-7.22A35.71,35.71,0,0,0,225,89.18,11.07,11.07,0,0,0,213.6,85a11.54,11.54,0,0,0-6.86,5.08A28.75,28.75,0,0,0,205.29,93a2.56,2.56,0,0,1,.15-.84,10.41,10.41,0,0,1,.95-2.28,11.72,11.72,0,0,1,7-5.58,11.53,11.53,0,0,1,6.34.13,11.81,11.81,0,0,1,6,4.14,35.88,35.88,0,0,1,3.93,6.92,22.74,22.74,0,0,0,4.45,6.9,10.37,10.37,0,0,0,7.38,2.69,47,47,0,0,0,7.71-.94,30.3,30.3,0,0,1,7.19-.55,14.38,14.38,0,0,1,6,1.9,11.17,11.17,0,0,0,4.67,1.57,4.58,4.58,0,0,0,3.24-1.47,2.92,2.92,0,0,0,.86-2.09C271.14,103,271,102.71,271,102.69Z" style="fill: rgb(69, 90, 100); transform-origin: 238.32px 95.7841px;" id="elg2rbk3y33pc" class="animable"></path><path d="M260,97a14.48,14.48,0,0,1,.7-28.37c3.14-.56,6.78.13,8.66,2.71s1.69,6.13,4,8.14c2.47,2.14,6.25,1.22,9.45,1.91,4.95,1.07,8.26,6.49,7.69,11.53s-4.42,9.32-9.11,11.24-10,1.71-14.9.29a55.87,55.87,0,0,1-13.62-6.61" style="fill: rgb(38, 50, 56); transform-origin: 269.66px 87.0031px;" id="elxvm26sm0slf" class="animable"></path><path d="M283.7,82.76c.1,0-.22,1.51-1.44,3.62a20.3,20.3,0,0,1-15.55,9.69c-2.43.17-3.91-.19-3.89-.3s1.49-.08,3.81-.42a22.48,22.48,0,0,0,15-9.36C283,84.06,283.54,82.69,283.7,82.76Z" style="fill: rgb(69, 90, 100); transform-origin: 273.268px 89.4362px;" id="elltisn1cop8o" class="animable"></path><path d="M273.26,104.57c-.25.21-3.27-4.81-9.34-8.23S252,92.75,252.1,92.42c0-.12,1.44-.27,3.76,0a24.56,24.56,0,0,1,15.47,8.89C272.77,103.19,273.36,104.51,273.26,104.57Z" style="fill: rgb(233, 30, 99); transform-origin: 262.685px 98.4225px;" id="elxllmm0ynagm" class="animable"></path><path d="M271.41,102.3a2.33,2.33,0,0,1,.72-.28,18.6,18.6,0,0,1,2.18-.47,22.64,22.64,0,0,1,8.2.27,17.58,17.58,0,0,1,5.39,2,3.3,3.3,0,0,1,1.54,3.06,2.55,2.55,0,0,1-1,1.66,4.21,4.21,0,0,1-1.72.73,11.89,11.89,0,0,1-3.62,0,28.08,28.08,0,0,1-3.65-.61,23.63,23.63,0,0,1-3.68-1.15,7.78,7.78,0,0,1-3.32-2.42,5.31,5.31,0,0,1-.79-4.08c.22-1.33.57-2.51.86-3.73a24.81,24.81,0,0,1,2.62-6.77A4.55,4.55,0,0,1,278,88.44a2.8,2.8,0,0,1,3.12,1.42A4.23,4.23,0,0,1,281,93a19.27,19.27,0,0,1-6.67,8.59,14.57,14.57,0,0,1-1.9,1.17q-.69.35-.72.3c-.05-.08.9-.58,2.38-1.78a20.38,20.38,0,0,0,5.1-6.13,19.72,19.72,0,0,0,1.08-2.41,3.51,3.51,0,0,0,.13-2.54,1.94,1.94,0,0,0-2.21-.9,3.66,3.66,0,0,0-2.26,1.78,24.29,24.29,0,0,0-2.44,6.51c-.49,2.34-1.66,5-.21,7s4.11,2.59,6.41,3.21a27.56,27.56,0,0,0,3.52.6,11.27,11.27,0,0,0,3.33,0c1-.19,1.93-.75,2-1.62a2.51,2.51,0,0,0-1.16-2.26,17.61,17.61,0,0,0-5.06-2,24.36,24.36,0,0,0-8-.57C272.46,102.12,271.43,102.39,271.41,102.3Z" style="fill: rgb(233, 30, 99); transform-origin: 280.43px 98.8869px;" id="el1xletmbmdcj" class="animable"></path><path d="M251.12,91.4s-.06.22-.27.58a6,6,0,0,1-1.27,1.34,8.63,8.63,0,0,1-6.53,1.45c-2.92-.44-5.91-2.44-8.54-5.09s-5.15-6-8.77-8a15.54,15.54,0,0,0-11.33-1.44,14.94,14.94,0,0,0-7.9,5.12,16.34,16.34,0,0,0-3,5.74c-.43,1.49-.51,2.36-.6,2.35s0-.22,0-.63a9.85,9.85,0,0,1,.25-1.81,15.61,15.61,0,0,1,11.06-11.66,16.17,16.17,0,0,1,12,1.46c3.88,2.22,6.35,5.66,8.93,8.23s5.33,4.55,8,5A8.47,8.47,0,0,0,249.35,93,12.07,12.07,0,0,0,251.12,91.4Z" style="fill: rgb(69, 90, 100); transform-origin: 226.995px 86.8533px;" id="el1xoeu4kqiij" class="animable"></path><path d="M211.76,156.54c.31.32,2.16-1.07,4.73-2.09s4.86-1.33,4.87-1.78c0-.21-.61-.41-1.62-.43a10.5,10.5,0,0,0-7.12,2.87C211.91,155.82,211.61,156.39,211.76,156.54Z" style="fill: rgb(38, 50, 56); transform-origin: 216.541px 154.413px;" id="elapyb7urdbor" class="animable"></path><path d="M197.28,441.06c.35,1.4,6.16,23.62,6.16,23.62l71.91.19-3.89-61L147.33,398.3l5.83,66.38h46.21Z" style="fill: rgb(69, 90, 100); transform-origin: 211.34px 431.585px;" id="eltpuzylc0kvm" class="animable"></path><path d="M250.1,175.37l7.57,14.18,2.87,77.58-6,74.71S272,381.5,271.46,403.91c0,0-39.65,20.11-75.86,13.79s-48.27-19.4-48.27-19.4l19-112.2s-2.87-12.65-2.3-23.56S177.21,212,177.21,212l26.24-12.66L208,186.45Z" style="fill: rgb(38, 50, 56); transform-origin: 209.401px 297.15px;" id="elp35dsloznw" class="animable"></path><path d="M248.45,193.11a8.62,8.62,0,0,0-.39-2.27,52.35,52.35,0,0,0-1.57-5.32,54.55,54.55,0,0,0-2.11-5.14,9.39,9.39,0,0,0-1.12-2,11.59,11.59,0,0,0,.78,2.16c.53,1.31,1.24,3.13,2,5.16s1.3,3.9,1.71,5.25A11.51,11.51,0,0,0,248.45,193.11Z" style="fill: rgb(69, 90, 100); transform-origin: 245.855px 185.745px;" id="elmnvf4ubbfpi" class="animable"></path><path d="M240.77,197.06a66.31,66.31,0,0,0-1.74-8,62.76,62.76,0,0,0-2.25-7.83,64.47,64.47,0,0,0,1.74,8A62.76,62.76,0,0,0,240.77,197.06Z" style="fill: rgb(69, 90, 100); transform-origin: 238.775px 189.145px;" id="el2kemh1twmfg" class="animable"></path><path d="M231.71,199.59a71.82,71.82,0,0,0-.79-8.58,71.57,71.57,0,0,0-1.31-8.52,69.56,69.56,0,0,0,.79,8.58A72,72,0,0,0,231.71,199.59Z" style="fill: rgb(69, 90, 100); transform-origin: 230.66px 191.04px;" id="elc0f0nmdimnf" class="animable"></path><path d="M219.87,201.06a60.31,60.31,0,0,0,.53-7.82,59.61,59.61,0,0,0,0-7.83,59.84,59.84,0,0,0-.53,7.81A59.79,59.79,0,0,0,219.87,201.06Z" style="fill: rgb(69, 90, 100); transform-origin: 220.135px 193.235px;" id="elnnkacagzmj" class="animable"></path><path d="M207.44,202.5a55,55,0,0,0,2.05-7.34A55.47,55.47,0,0,0,211,187.7,57.41,57.41,0,0,0,209,195,56.14,56.14,0,0,0,207.44,202.5Z" style="fill: rgb(69, 90, 100); transform-origin: 209.22px 195.1px;" id="el137rio70akb" class="animable"></path><path d="M61.88,377.39,74,372.91l-9.47-19.67L53.29,347.7l-9.56.5s-1,3.05,3,4.49a24.7,24.7,0,0,0,5.37,1.55l3.94,4-4,3Z" style="fill: rgb(255, 190, 157); transform-origin: 58.8094px 362.545px;" id="el31ngtrd8f26" class="animable"></path><path d="M198,201.93s-42.5,190.48-40.22,228.29,2.27,34.46,2.27,34.46H140.46s-.4-50.4,6.87-90.95,15-92.94,15-94.77c0-1.63,10.15-53.41,12.31-64.41a4.1,4.1,0,0,1,2.3-2.92Z" style="fill: rgb(233, 30, 99); transform-origin: 169.228px 333.343px;" id="el48p0t3j91lu" class="animable"></path><path d="M63,350s19.14-14.58,36.91-31.44,51-62.87,51-62.87,13.49-40.44,26-44.1-7.32,66.88-7.32,66.88l.91,13.67s-21.87,30.07-41,51-54.67,31.44-54.67,31.44Z" style="fill: rgb(233, 30, 99); transform-origin: 122.025px 293.016px;" id="el7lb0qxlvyof" class="animable"></path><path d="M174.34,228.41s0,.07-.08.21-.12.4-.21.66c-.17.63-.42,1.47-.72,2.54-.58,2.22-1.38,5.45-2.28,9.45-1.8,8-4.08,19.1-6.44,31.39s-4.39,23.44-5.79,31.52c-.67,4-1.22,7.27-1.61,9.58-.17,1.1-.3,2-.4,2.61l-.09.68a.65.65,0,0,0,0,.24.79.79,0,0,0,.06-.23l.14-.67c.13-.64.29-1.5.5-2.6.43-2.3,1-5.55,1.77-9.54,1.53-8.1,3.62-19.21,5.94-31.49s4.58-23.39,6.29-31.41c.86-4,1.6-7.24,2.12-9.48.26-1.08.47-1.93.63-2.56l.15-.67A.67.67,0,0,0,174.34,228.41Z" style="fill: rgb(38, 50, 56); transform-origin: 165.526px 272.85px;" id="elf90rrxy7ajq" class="animable"></path><path d="M234.61,252.77c.57-21.27,23-63.22,23-63.22l11.32,6.6-11.32,71s11.16,71.29,17.24,88.51,22.63,108.91,22.63,108.91l-55.6.13S234,274,234.61,252.77Z" style="fill: rgb(233, 30, 99); transform-origin: 266.028px 327.125px;" id="elliud5st88o" class="animable"></path><path d="M328.8,384.27l6.53,20.94A39.22,39.22,0,0,1,307.28,455l-.53.13a39.22,39.22,0,0,1-47.23-27.81L253,403.08Z" style="fill: rgb(233, 30, 99); transform-origin: 295.059px 420.269px;" id="elzyhde1wbmxe" class="animable"></path><g id="ely0zvj3fcayp"><g style="opacity: 0.3; transform-origin: 295.059px 420.269px;" class="animable"><path d="M328.8,384.27l6.53,20.94A39.22,39.22,0,0,1,307.28,455l-.53.13a39.22,39.22,0,0,1-47.23-27.81L253,403.08C252.84,402.8,326.92,384.93,328.8,384.27Z" id="eldm2lu7h62rk" class="animable" style="transform-origin: 295.059px 420.269px;"></path></g></g><path d="M253.63,403.84l.17.24.53.67c.46.59,1.17,1.44,2.11,2.51a79.26,79.26,0,0,0,8.62,8.48,57.11,57.11,0,0,0,15.25,9.39,41.46,41.46,0,0,0,10.26,2.72,40.36,40.36,0,0,0,11.39-.17c7.74-1.24,14.69-5,19.06-10.29a29.68,29.68,0,0,0,4.86-8.28A37.56,37.56,0,0,0,328,401a45.42,45.42,0,0,0,.55-6.88c0-2-.08-3.78-.18-5.2s-.26-2.53-.38-3.27c0-.35-.1-.62-.13-.84a2.45,2.45,0,0,0-.06-.29.91.91,0,0,0,0,.29c0,.22,0,.5.08.85.08.75.17,1.85.27,3.27s.16,3.16.1,5.18a46.83,46.83,0,0,1-.62,6.83,38.31,38.31,0,0,1-2.19,8,29.29,29.29,0,0,1-4.83,8.13c-4.3,5.14-11.14,8.86-18.78,10.08a39.68,39.68,0,0,1-11.24.18,41.26,41.26,0,0,1-10.14-2.66,57.57,57.57,0,0,1-15.2-9.22,87,87,0,0,1-8.7-8.33c-1-1.05-1.69-1.88-2.18-2.45l-.57-.64C253.71,403.9,253.64,403.83,253.63,403.84Z" style="fill: rgb(38, 50, 56); transform-origin: 291.09px 406.347px;" id="eldx34n5wqsnt" class="animable"></path><path d="M258.09,408.91a1.2,1.2,0,0,0,.05.29c.05.21.12.48.2.82.2.75.48,1.8.84,3.13.75,2.71,1.84,6.65,3.55,11.39a55.1,55.1,0,0,0,8.32,15.6,34.41,34.41,0,0,0,7.75,7.05,39.05,39.05,0,0,0,10.2,4.74,42.21,42.21,0,0,0,21.54.57A35.67,35.67,0,0,0,326,444.09a32.5,32.5,0,0,0,7.1-9.57c.28-.64.53-1.21.76-1.71s.33-.95.46-1.3l.26-.8a2.61,2.61,0,0,0,.08-.28,1,1,0,0,0-.13.26l-.31.79c-.14.34-.29.77-.51,1.27s-.5,1.05-.79,1.68a33.35,33.35,0,0,1-7.17,9.39A35.64,35.64,0,0,1,310.43,452a42,42,0,0,1-21.28-.6,39.3,39.3,0,0,1-10.07-4.66,33.91,33.91,0,0,1-7.65-6.94,55,55,0,0,1-8.35-15.42c-1.76-4.71-2.89-8.62-3.71-11.32-.39-1.32-.7-2.36-.93-3.1l-.25-.81A1.36,1.36,0,0,0,258.09,408.91Z" style="fill: rgb(38, 50, 56); transform-origin: 296.375px 431.269px;" id="eli933l1jionj" class="animable"></path><path d="M292.17,225.93a2.26,2.26,0,0,0,.06.42c.06.3.13.7.23,1.22l.93,4.69c.83,4.09,2,10,3.47,17.21,2.95,14.54,6.92,34.64,11.61,56.78,2.36,11.08,4.7,21.6,6.94,31.16s4.37,18.12,6.29,25.28c.93,3.59,1.83,6.83,2.61,9.67s1.48,5.28,2.07,7.27l1.36,4.58.36,1.18a2.6,2.6,0,0,0,.14.4,2.18,2.18,0,0,0-.09-.41l-.31-1.2c-.3-1.08-.72-2.63-1.27-4.61s-1.23-4.44-2-7.29-1.63-6.08-2.53-9.68c-1.88-7.17-3.94-15.76-6.18-25.3s-4.54-20.08-6.9-31.15c-4.69-22.14-8.72-42.23-11.75-56.75-1.54-7.24-2.78-13.1-3.64-17.19l-1-4.66-.28-1.21A2.13,2.13,0,0,0,292.17,225.93Z" style="fill: rgb(38, 50, 56); transform-origin: 310.205px 305.86px;" id="elyqmmhtfy38" class="animable"></path><path d="M253,354.61a1.86,1.86,0,0,0,0,.49l0,1.4c0,1.21.14,3,.28,5.13.29,4.34.81,10.31,1.62,16.89s1.76,12.5,2.53,16.78c.39,2.13.72,3.86,1,5l.3,1.37a2,2,0,0,0,.14.47,1.52,1.52,0,0,0,0-.49l-.21-1.38c-.2-1.28-.48-3-.81-5.08-.68-4.28-1.56-10.21-2.37-16.77s-1.39-12.53-1.77-16.85c-.19-2.1-.34-3.83-.45-5.12-.05-.56-.1-1-.14-1.39A1.53,1.53,0,0,0,253,354.61Z" style="fill: rgb(38, 50, 56); transform-origin: 255.937px 378.375px;" id="eljxjyv7140k" class="animable"></path><path d="M264.5,193.57a.54.54,0,0,0-.25-.09,1.26,1.26,0,0,0-.73.21,8.91,8.91,0,0,0-2.09,2,47.3,47.3,0,0,0-5.46,9.16,46.51,46.51,0,0,0-2.63,6.9c-.69,2.56-1.42,5.29-2.19,8.16-1.55,5.74-3.29,12-4.89,18.73a186,186,0,0,0-3.61,19,140.28,140.28,0,0,0-1.19,15.77c0,1.13,0,2.2,0,3.22s0,2,.05,2.86c0,1.79.08,3.33.18,4.58s.15,2.19.2,2.9l.06.75a1,1,0,0,0,0,.25,1,1,0,0,0,0-.26V287c0-.7-.06-1.67-.1-2.89s-.08-2.8-.09-4.58c0-.9,0-1.85,0-2.86s.05-2.08.08-3.21a147.1,147.1,0,0,1,1.3-15.72,192.21,192.21,0,0,1,3.64-19c1.59-6.67,3.32-13,4.84-18.73l2.14-8.17A47.81,47.81,0,0,1,256.3,205a50.53,50.53,0,0,1,5.29-9.19,9.6,9.6,0,0,1,2-2.06,1.42,1.42,0,0,1,.68-.25C264.41,193.54,264.49,193.59,264.5,193.57Z" style="fill: rgb(38, 50, 56); transform-origin: 252.98px 240.725px;" id="el3p6pyi9n16k" class="animable"></path><path d="M54.14,363.76s.59,1.82,2.27,1.58,7.08.48,7.68,1.8,1.56,4.56-3.12,4.8-9.12,0-9.12,0L49,369.35a2.94,2.94,0,0,1-.63-3.48L50.88,361l5.52-4.29-.19,7.68Z" style="fill: rgb(255, 190, 157); transform-origin: 56.3285px 364.378px;" id="eliscngfljmm" class="animable"></path><path d="M59.53,372a4.06,4.06,0,0,1,2.87,2.7c.73,2.28.12,4.2-1.43,4.32s-7.44,0-7.44,0l-3.24-2.16-.93-7.22,2.49,2.3Z" style="fill: rgb(255, 190, 157); transform-origin: 56.0334px 374.357px;" id="elgnrvw1m73n8" class="animable"></path><path d="M59,378.07a3.44,3.44,0,0,1,2.43,2.3c.63,1.94.11,3.57-1.21,3.67s-6.33,0-6.33,0l-2.75-1.83-.8-6.14L52.45,378Z" style="fill: rgb(255, 190, 157); transform-origin: 56.0183px 380.077px;" id="elr529n21rqf" class="animable"></path><path d="M49,369.23a.89.89,0,0,0,.09.33,3.82,3.82,0,0,0,.47.86,5.63,5.63,0,0,0,3,1.94,15,15,0,0,0,5.27.22l3.09-.28a6.48,6.48,0,0,0,3.24-1.06,2.64,2.64,0,0,0,1-1.53,3,3,0,0,0-.18-1.75,3.93,3.93,0,0,0-2.32-2.19c-2-.74-3.79-.48-5.25-.58a7.2,7.2,0,0,1-1.93-.29,2.49,2.49,0,0,1-1.19-.79,2.3,2.3,0,0,1-.46-1.14,1.43,1.43,0,0,0,.3,1.27,2.61,2.61,0,0,0,1.25.93,7,7,0,0,0,2,.39c1.49.14,3.31-.06,5.09.65a3.52,3.52,0,0,1,2,1.94,2.22,2.22,0,0,1-.66,2.68,6.11,6.11,0,0,1-3,1l-3.06.31a15.14,15.14,0,0,1-5.13-.1,5.57,5.57,0,0,1-2.92-1.71A11.43,11.43,0,0,1,49,369.23Z" style="fill: rgb(235, 153, 110); transform-origin: 57.1085px 367.843px;" id="elrxdxahnlck" class="animable"></path><path d="M50.29,376.86a4.28,4.28,0,0,0,.74.65,3.4,3.4,0,0,0,1,.55l1.45.43a9.86,9.86,0,0,0,1.81.41c.66.09,1.4.07,2.11.11a23.25,23.25,0,0,0,2.33.18c.38,0,.79.05,1.23,0a1.87,1.87,0,0,0,1.34-.47,3.21,3.21,0,0,0,.68-2.55,4.17,4.17,0,0,0-.88-2.26,5.34,5.34,0,0,0-3.57-1.78,12,12,0,0,0-2.68,0,3.8,3.8,0,0,0-1,.18,3.63,3.63,0,0,0,1,0,14.11,14.11,0,0,1,2.61.12,5.15,5.15,0,0,1,3.25,1.72,3.74,3.74,0,0,1,.74,2,2.77,2.77,0,0,1-.54,2.13c-.48.48-1.39.28-2.21.29s-1.54-.1-2.29-.14a13.76,13.76,0,0,1-3.85-.4c-.53-.15-1.06-.25-1.47-.35a4.08,4.08,0,0,1-1-.45C50.62,377,50.31,376.82,50.29,376.86Z" style="fill: rgb(235, 153, 110); transform-origin: 56.6563px 375.634px;" id="elc9uwqnlwqiq" class="animable"></path><polygon points="154.61 296.12 236.5 299.32 154.61 304.44 57.4 300.28 154.61 296.12" style="fill: rgb(233, 30, 99); transform-origin: 146.95px 300.28px;" id="eljzz3fkp96pb" class="animable"></polygon><g id="el5mo3fp8udc8"><g style="opacity: 0.6; transform-origin: 146.95px 300.28px;" class="animable"><polygon points="154.61 296.12 236.5 299.32 154.61 304.44 57.4 300.28 154.61 296.12" id="ellz7vlc4fsr" class="animable" style="transform-origin: 146.95px 300.28px;"></polygon></g></g><path d="M117.72,252.85C109.65,237.52,113,217,125.47,205c3.88-3.72,9.11-6.79,14.4-5.83s9.38,6.09,10.55,11.47.05,11-1.43,16.29c-2.08,7.42-5.1,14.93-10.87,20s-14,10.15-20.4,5.84" style="fill: rgb(233, 30, 99); transform-origin: 132.121px 226.693px;" id="elqsvs7dwmuu" class="animable"></path><path d="M116.39,322.83a21.68,21.68,0,0,1,8.33-23.93c2.33-1.57,5.3-2.67,7.94-1.7s4.28,4,4.4,6.86a18,18,0,0,1-2.21,8.27c-1.75,3.63-4,7.23-7.42,9.34s-8.14,4-11,1.16" style="fill: rgb(233, 30, 99); transform-origin: 126.275px 310.552px;" id="elgs7o9g198hp" class="animable"></path><path d="M94.1,315.73c3.8-12.55-1.62-27.31-12.63-34.43-3.43-2.21-7.75-3.74-11.54-2.26s-6.1,5.87-6.2,10,1.54,8.18,3.4,11.91c2.62,5.22,5.94,10.37,11,13.34s11.88,5.54,16,1.41" style="fill: rgb(233, 30, 99); transform-origin: 79.5171px 298.153px;" id="el7ay75nc59he" class="animable"></path><path d="M99,281.27c5.89-14.15-.11-32.56-12.09-42.13-3.72-3-8.57-5.25-13.15-4S66,241.27,65.38,246.1s.82,9.69,2.56,14.25c2.42,6.38,5.68,12.76,11.18,16.81s14.59,8.43,19.88,4.11" style="fill: rgb(233, 30, 99); transform-origin: 83.2605px 258.921px;" id="el11j1b5jcq32a" class="animable"></path><path d="M101.35,353.42a3.2,3.2,0,0,1-.08-.72c0-.54-.07-1.23-.11-2.07,0-.45,0-.95-.07-1.49s-.11-1.13-.17-1.76c-.12-1.27-.23-2.71-.49-4.3-.12-.79-.24-1.62-.36-2.48s-.34-1.75-.52-2.68c-.31-1.85-.86-3.79-1.34-5.85a111.19,111.19,0,0,0-4.45-13,112.3,112.3,0,0,0-6.2-12.28c-1.14-1.78-2.15-3.53-3.25-5l-1.56-2.24-1.52-2c-1-1.3-1.91-2.39-2.73-3.36l-1.14-1.35-1-1.09-1.4-1.52a4.28,4.28,0,0,1-.46-.56s.2.15.55.47l1.48,1.44,1.07,1.06,1.18,1.33c.85.95,1.84,2,2.81,3.3l1.57,2,1.59,2.23c1.13,1.52,2.16,3.26,3.32,5.05a105.62,105.62,0,0,1,6.28,12.33,106.14,106.14,0,0,1,4.43,13.11c.48,2.08,1,4,1.3,5.91.17.93.33,1.83.48,2.69s.22,1.71.32,2.51c.24,1.59.32,3.05.41,4.32,0,.63.08,1.23.12,1.78s0,1,0,1.49v2.07A3.18,3.18,0,0,1,101.35,353.42Z" style="fill: rgb(38, 50, 56); transform-origin: 87.9639px 321.545px;" id="elfpaikowix2e" class="animable"></path><path d="M100.77,356a1.1,1.1,0,0,1,0-.3c0-.22.08-.5.14-.84l.61-3.21.45-2.31c.14-.85.25-1.79.4-2.78.26-2,.67-4.26.84-6.79.11-1.27.23-2.59.35-4s.12-2.82.19-4.31c.18-3,.08-6.16,0-9.51a149,149,0,0,0-2.47-21.63,147.86,147.86,0,0,0-5.91-21c-1.23-3.12-2.33-6.11-3.63-8.79-.63-1.35-1.18-2.69-1.81-3.92l-1.83-3.53c-1.11-2.28-2.34-4.22-3.34-6-.52-.87-1-1.69-1.43-2.42l-1.29-2-1.78-2.74-.45-.72a.93.93,0,0,1-.13-.26,1.24,1.24,0,0,1,.18.22l.5.69,1.88,2.68,1.34,1.95c.47.72,1,1.54,1.47,2.4,1,1.73,2.3,3.66,3.44,5.93l1.87,3.53c.65,1.23,1.21,2.56,1.85,3.91,1.32,2.69,2.45,5.68,3.7,8.81a145.52,145.52,0,0,1,6,21A144.72,144.72,0,0,1,104.38,322c0,3.36.12,6.56-.08,9.55-.08,1.49-.1,2.94-.23,4.32s-.27,2.71-.4,4c-.19,2.54-.63,4.8-.93,6.8-.16,1-.29,1.93-.45,2.78l-.51,2.31c-.3,1.35-.54,2.41-.72,3.19-.08.34-.15.61-.2.83A1.33,1.33,0,0,1,100.77,356Z" style="fill: rgb(38, 50, 56); transform-origin: 92.0479px 302.47px;" id="el5fuj4yuxchm" class="animable"></path><path d="M138.7,216.68s0,.1-.15.26l-.47.72-1.89,2.73c-.41.59-.89,1.23-1.36,2s-1,1.56-1.5,2.42l-1.73,2.78c-.59,1-1.17,2.08-1.8,3.2s-1.3,2.29-1.94,3.54-1.28,2.56-2,3.92c-.34.67-.68,1.36-1,2.06l-1,2.18q-1,2.21-2,4.53c-2.61,6.29-5.19,13.31-7.51,20.81s-4.06,14.79-5.49,21.44-2.41,12.71-3,17.82c-.37,2.55-.62,4.87-.82,6.9s-.39,3.79-.48,5.22-.2,2.5-.27,3.31c0,.35-.06.63-.08.86a1,1,0,0,1,0,.29.81.81,0,0,1,0-.29c0-.23,0-.52,0-.87,0-.8.08-1.91.15-3.31s.18-3.2.38-5.24.38-4.37.72-6.92c.57-5.13,1.61-11.19,2.91-17.88s3.18-14,5.46-21.51,4.92-14.56,7.57-20.85l2-4.54c.34-.74.67-1.46,1-2.18l1-2.06c.68-1.35,1.35-2.66,2-3.92s1.36-2.4,2-3.53,1.23-2.19,1.84-3.18L133,224.6l1.55-2.4c.48-.73,1-1.36,1.4-1.95l2-2.66.53-.69A1.19,1.19,0,0,1,138.7,216.68Z" style="fill: rgb(38, 50, 56); transform-origin: 121.448px 270.175px;" id="elqvg6xvpa1j" class="animable"></path><path d="M127.14,305a14.23,14.23,0,0,1-1.17,1.66c-.8,1-1.9,2.58-3.2,4.52s-2.77,4.3-4.27,7-3,5.76-4.35,9a97.77,97.77,0,0,0-3.33,9.47c-.85,3-1.51,5.67-1.95,8s-.77,4.16-.94,5.45a13.15,13.15,0,0,1-.36,2,12.91,12.91,0,0,1,.12-2c.1-1.3.35-3.19.75-5.5a80.52,80.52,0,0,1,1.83-8,88.81,88.81,0,0,1,3.31-9.55,90.58,90.58,0,0,1,4.42-9.08,81,81,0,0,1,4.41-7c1.35-1.91,2.51-3.42,3.37-4.42A12.1,12.1,0,0,1,127.14,305Z" style="fill: rgb(38, 50, 56); transform-origin: 117.354px 328.55px;" id="elf989ezlx84n" class="animable"></path><polygon points="83.42 345.17 124.89 349.08 115.88 390.96 84.6 388.01 83.42 345.17" style="fill: rgb(69, 90, 100); transform-origin: 104.155px 368.065px;" id="elbpgbjtdv8pl" class="animable"></polygon><polygon points="81.38 383.09 84.47 388 115.88 390.96 119.92 386.87 81.38 383.09" style="fill: rgb(38, 50, 56); transform-origin: 100.65px 387.025px;" id="elwszlup9csxt" class="animable"></polygon><path d="M122.1,361.38c0,.17-8.63-.5-19.25-1.5s-19.2-1.95-19.19-2.12,8.64.5,19.25,1.5S122.12,361.21,122.1,361.38Z" style="fill: rgb(250, 250, 250); transform-origin: 102.88px 359.57px;" id="el4qs7ylwrodw" class="animable"></path><path d="M121.83,364.2c0,.17-8.63-.5-19.24-1.5s-19.21-1.95-19.19-2.12,8.63.5,19.25,1.5S121.85,364,121.83,364.2Z" style="fill: rgb(250, 250, 250); transform-origin: 102.615px 362.39px;" id="el91759bc50h" class="animable"></path><path d="M121.06,366.88c0,.17-8.33-.47-18.57-1.44S84,363.56,84,363.39s8.33.47,18.57,1.44S121.08,366.71,121.06,366.88Z" style="fill: rgb(250, 250, 250); transform-origin: 102.53px 365.135px;" id="eltrtf1m2txac" class="animable"></path><path d="M207.91,358V283.44l-68.13,4.67v85.51Z" style="fill: rgb(69, 90, 100); transform-origin: 173.845px 328.53px;" id="el9pbr6rtblp" class="animable"></path><path d="M127.29,319.26c-.48-2.41,0-32.58,0-32.58l80.62-3.24-68.13,4.67v40.42Z" style="fill: rgb(250, 250, 250); transform-origin: 167.493px 305.985px;" id="elmkfu0bvpgq" class="animable"></path><path d="M126.84,319.55l0-.19c-.48-2.43,0-31.45,0-32.68v-.48l81.09-3.26.06,1-67.67,4.63v41Zm1-32.39c-.16,10.27-.36,29.14,0,31.82l11.52,8.56v-39.9l33.18-2.27Z" style="fill: rgb(69, 90, 100); transform-origin: 167.308px 306.255px;" id="el0cv16juyxleq" class="animable"></path><path d="M226.22,362.39V287.82l-68.14,4.67V378Z" style="fill: rgb(233, 30, 99); transform-origin: 192.15px 332.91px;" id="ela031q4a540f" class="animable"></path><path d="M145.59,323.64c-.48-2.41,0-32.58,0-32.58l80.63-3.24-68.14,4.67v40.42Z" style="fill: rgb(250, 250, 250); transform-origin: 185.798px 310.365px;" id="eldsh3qqodcfu" class="animable"></path><path d="M145.14,323.93l0-.19c-.48-2.43,0-31.45,0-32.69v-.47l81.1-3.26.05,1L158.58,293V333.9Zm1-32.39c-.16,10.27-.36,29.14,0,31.82l11.52,8.56V292l33.19-2.28Z" style="fill: rgb(233, 30, 99); transform-origin: 185.608px 310.61px;" id="elps4nscokmhh" class="animable"></path><path d="M236.51,299.32v99.4l-79.18,18.82L54.92,398.72l2.48-98.44,95.89,4.24Z" style="fill: rgb(233, 30, 99); transform-origin: 145.715px 358.43px;" id="el0spwlre69ytp" class="animable"></path><g id="elv3yqg2142ks"><g style="opacity: 0.4; transform-origin: 145.715px 358.43px;" class="animable"><path d="M236.51,299.32v99.4l-79.18,18.82L54.92,398.72l2.48-98.44,95.89,4.24Z" id="elpvbwu8f2pp" class="animable" style="transform-origin: 145.715px 358.43px;"></path></g></g><path d="M221.23,341.49H221l-.78.06-3.06.27-11.54,1.1-40.9,4,.25.17c-2.85-12.4-6.08-26.48-9.52-41.44l-.58-2.51.07,2.58c0,1.91.1,4,.15,6,.76,29.08,1.45,55.4,1.94,74.48.28,9.51.5,17.22.65,22.57.09,2.64.16,4.71.21,6.13,0,.69.05,1.22.06,1.6s0,.54,0,.54,0-.19,0-.55,0-.91,0-1.59c0-1.43-.06-3.49-.1-6.14-.12-5.35-.28-13.06-.49-22.57-.46-19.08-1.09-45.4-1.79-74.48,0-2.06-.1-4.11-.15-6l-.52.06c3.46,14.95,6.72,29,9.58,41.43l.05.2.2,0,40.88-4.21L217.14,342l3-.35.78-.09Z" style="fill: rgb(38, 50, 56); transform-origin: 188.05px 360.09px;" id="el466mf67cp4q" class="animable"></path><polyline points="154.61 304.44 143.48 346.27 50.14 335.4 57.4 300.28" style="fill: rgb(233, 30, 99); transform-origin: 102.375px 323.275px;" id="el4y9pw0zdt8n" class="animable"></polyline><path d="M57.4,300.28s-.06.21-.16.63-.24,1-.41,1.84c-.36,1.65-.87,4-1.52,7.06-1.29,6.13-3.14,14.9-5.38,25.55l0,.22.23,0,50.35,5.91,43,5,.19,0,.05-.19c3.3-12.54,6.05-23,8-30.35.94-3.65,1.68-6.53,2.2-8.52l.56-2.24c.06-.24.1-.43.14-.58s0-.2,0-.2a1.38,1.38,0,0,0-.07.19l-.17.57-.63,2.23c-.54,2-1.32,4.85-2.32,8.48-2,7.34-4.79,17.78-8.16,30.3l.24-.16-43-5-50.36-5.82.18.25c2.17-10.66,3.95-19.44,5.2-25.58.61-3,1.08-5.43,1.41-7.08.15-.8.27-1.42.35-1.86S57.4,300.28,57.4,300.28Z" style="fill: rgb(38, 50, 56); transform-origin: 102.299px 323.385px;" id="elkqjtl8rp32" class="animable"></path><g id="el7ck97zl8sbi"><g style="opacity: 0.4; transform-origin: 102.375px 323.275px;" class="animable"><polyline points="154.61 304.44 143.48 346.27 50.14 335.4 57.4 300.28" id="eljlmmvef16i8" class="animable" style="transform-origin: 102.375px 323.275px;"></polyline></g></g><path d="M191,369.58s-6.7,2.24-9.11,1.89a78.9,78.9,0,0,0-9.28,0l-17.71,9.59s1.27,4.72,4,4.29,7-2.92,7-2.92l-7.31,4.64s-10-5-10.48-4.81-3.61.86-2.58,2.24,11.17,8.93,11.17,8.93l-10.31-3.78s-4,1.21-2.75,3.78l11.58,7.71-7.28-1a2,2,0,0,0-.18,3.09c1.55,1.89,8.6,4.3,8.6,4.3l9.24-1.75,7.88-4.27s9.48-6.19,12-8.42,11.62-6.7,11.62-6.7,1-15.3-5.15-16.85" style="fill: rgb(255, 190, 157); transform-origin: 170.279px 388.535px;" id="ela4ii7ou8ii" class="animable"></path><path d="M158.5,387.11a49.07,49.07,0,0,0,6.12-3.71,46.68,46.68,0,0,1,4.34-2.55,5.66,5.66,0,0,0,1.73-1.21,15.07,15.07,0,0,0-1.9.89,28.58,28.58,0,0,0-4.45,2.43A49.9,49.9,0,0,0,158.5,387.11Z" style="fill: rgb(235, 153, 110); transform-origin: 164.595px 383.375px;" id="elfchxjdmpwkg" class="animable"></path><path d="M155.49,392.74a5.84,5.84,0,0,0,1.8,1.1,6,6,0,0,0,2.26.57,5.41,5.41,0,0,0,2.75-.77,31.5,31.5,0,0,0,4.3-2.66,6.86,6.86,0,0,0,1.59-1.38c-.1-.12-2.65,1.8-6.13,3.58a5.31,5.31,0,0,1-2.51.75,6.33,6.33,0,0,1-2.12-.43A15.53,15.53,0,0,0,155.49,392.74Z" style="fill: rgb(235, 153, 110); transform-origin: 161.84px 392.002px;" id="elqz4282ma9e9" class="animable"></path><path d="M154.31,400.69a4.08,4.08,0,0,0,2.06.92,9.43,9.43,0,0,0,5.4-.59,18.21,18.21,0,0,0,4.61-2.87,8.94,8.94,0,0,0,1.63-1.53,10.81,10.81,0,0,0-1.86,1.24,22.5,22.5,0,0,1-4.57,2.68,10,10,0,0,1-5.14.7A20.2,20.2,0,0,1,154.31,400.69Z" style="fill: rgb(235, 153, 110); transform-origin: 161.16px 399.194px;" id="elkbcbh4eh3ze" class="animable"></path><path d="M265.64,194.15s24.14,13.79,25.86,25.28-4.6,76.44-8.62,90.8S269,339.41,259.17,351.38s-30.89,49.66-43,46.78l-25.38-8.55L180.67,371s57.38-53.33,58-67.13S257,244.15,257,244.15Z" style="fill: rgb(233, 30, 99); transform-origin: 236.23px 296.233px;" id="ell0za8t7vimr" class="animable"></path><path d="M238.3,306.29c0,.11,1.45,0,3.71.43a21.3,21.3,0,0,1,3.87,1.16,27,27,0,0,1,4.36,2.33,29,29,0,0,1,3.84,3.12,26,26,0,0,1,2.66,3.05c1.37,1.86,2,3.17,2.07,3.13a3.73,3.73,0,0,0-.38-.95,8.36,8.36,0,0,0-.55-1.05,14.85,14.85,0,0,0-.84-1.34,22.65,22.65,0,0,0-2.62-3.18,26.75,26.75,0,0,0-3.89-3.22,26,26,0,0,0-4.47-2.34,19.37,19.37,0,0,0-4-1.07,12.39,12.39,0,0,0-1.58-.17,6.82,6.82,0,0,0-1.19,0A3.19,3.19,0,0,0,238.3,306.29Z" style="fill: rgb(38, 50, 56); transform-origin: 248.555px 312.837px;" id="el1r0aial7s0v" class="animable"></path><path d="M238.3,306.29c0,.08,1.2-.1,3.15-.18s4.63-.07,7.59.09,5.66.4,7.6.57a19.4,19.4,0,0,0,3.16.17,18.11,18.11,0,0,0-3.12-.54c-1.94-.26-4.62-.55-7.61-.72a54,54,0,0,0-7.65.06,21.92,21.92,0,0,0-2.3.32C238.58,306.17,238.29,306.25,238.3,306.29Z" style="fill: rgb(38, 50, 56); transform-origin: 249.05px 306.26px;" id="elkpeizhsbw8b" class="animable"></path><path d="M270.32,336.29l-.34.42L269,338l-3.73,5-13.83,18.58-9.67,13c-3.5,4.7-7.24,9.78-11.56,14.85-.55.63-1.11,1.25-1.71,1.83s-1.31,1-2,1.61c-1.32,1.12-2.57,2.32-4,3.37a14,14,0,0,1-2.21,1.37,5.06,5.06,0,0,1-2.48.58,12.3,12.3,0,0,1-2.56-.71l-2.6-.86-21.82-7.24.14.12L180.9,370.91l-.05.32c2.48-2.24,5.1-4.68,7.73-7.15,10.27-9.69,19.93-19.34,28.58-28.87,4.33-4.76,8.39-9.51,12.06-14.26a78.2,78.2,0,0,0,9.28-14.57v-.05c4.21-19.37,7.7-35.45,10.15-46.71,1.2-5.61,2.15-10,2.8-13,.31-1.49.55-2.64.71-3.44s.23-1.18.23-1.18-.11.4-.29,1.17-.44,1.93-.79,3.42c-.67,3-1.66,7.41-2.91,13-2.49,11.24-6,27.31-10.33,46.67l0,0a78,78,0,0,1-9.26,14.46c-3.67,4.73-7.72,9.46-12.05,14.22-8.65,9.5-18.3,19.14-28.57,28.83-2.62,2.46-5.24,4.89-7.72,7.13l-.15.14.09.18,10.18,18.57,0,.09.1,0,21.84,7.22,2.61.86a12,12,0,0,0,2.66.72,5.38,5.38,0,0,0,2.7-.63,12.94,12.94,0,0,0,2.29-1.42c1.43-1.07,2.69-2.29,4-3.4.63-.56,1.35-1,2-1.63s1.18-1.23,1.73-1.86c4.33-5.1,8.06-10.19,11.55-14.91l9.62-13.06,13.7-18.68,3.66-5,.93-1.3Z" style="fill: rgb(38, 50, 56); transform-origin: 225.32px 320.341px;" id="eld66hvie6qpa" class="animable"></path><path d="M260.89,227.85c.1,0,.62-1.52,2.05-3.71a16.89,16.89,0,0,1,1.26-1.71,22.26,22.26,0,0,1,1.64-1.82,22.81,22.81,0,0,1,9.52-5.65,22.59,22.59,0,0,1,2.38-.57,15.74,15.74,0,0,1,2.11-.28c2.6-.21,4.22.08,4.23,0a4,4,0,0,0-1.13-.22,8,8,0,0,0-1.34-.12,13.32,13.32,0,0,0-1.79,0,14.34,14.34,0,0,0-2.15.23,20.3,20.3,0,0,0-2.44.53,22.2,22.2,0,0,0-9.73,5.78,19.67,19.67,0,0,0-1.64,1.88,17,17,0,0,0-1.23,1.79,12.57,12.57,0,0,0-.86,1.56,9.75,9.75,0,0,0-.54,1.24A4.49,4.49,0,0,0,260.89,227.85Z" style="fill: rgb(38, 50, 56); transform-origin: 272.485px 220.795px;" id="el0w5rkdwzyj7a" class="animable"></path></g><g id="freepik--Plant--inject-33" class="animable" style="transform-origin: 613.228px 121.89px;"><rect x="524.27" y="175.88" width="177.04" height="9.11" style="fill: rgb(69, 90, 100); transform-origin: 612.79px 180.435px;" id="elviydjj1s8cm" class="animable"></rect><path d="M677.39,93.09s0-.09-.11-.25-.23-.43-.38-.71a30.67,30.67,0,0,0-1.68-2.62,28,28,0,0,0-8.28-7.82A20.16,20.16,0,0,0,659.51,79a18.29,18.29,0,0,0-9,.94,14.6,14.6,0,0,0-7.72,6.33c-1.78,3.09-2.35,6.73-3.39,10.21a18.74,18.74,0,0,1-2.15,4.87,14.81,14.81,0,0,1-3.67,3.61c-1.38,1-2.83,1.94-4.14,3a17.7,17.7,0,0,0-3.35,3.64,22.33,22.33,0,0,0-3.45,8.4,30.09,30.09,0,0,0-.46,7.9,59.94,59.94,0,0,0,2,11.23c.34,1.31.63,2.31.83,3a7.55,7.55,0,0,0,.33,1,6.7,6.7,0,0,0-.21-1.06c-.18-.74-.42-1.75-.72-3a64.48,64.48,0,0,1-1.81-11.2,30.08,30.08,0,0,1,.52-7.77,22,22,0,0,1,3.41-8.17,17.42,17.42,0,0,1,3.26-3.51c1.28-1,2.71-1.94,4.12-3a15.32,15.32,0,0,0,3.82-3.76,18.84,18.84,0,0,0,2.24-5c1-3.54,1.62-7.12,3.32-10.09a14,14,0,0,1,7.39-6.08,17.94,17.94,0,0,1,8.75-1,20.11,20.11,0,0,1,7.28,2.6,28.79,28.79,0,0,1,8.3,7.59c.81,1.07,1.39,1.94,1.77,2.53A7.64,7.64,0,0,0,677.39,93.09Z" style="fill: rgb(224, 224, 224); transform-origin: 649.744px 110.968px;" id="el0aeylpqneatk" class="animable"></path><path d="M631.94,105.84c.95-.89,1.42-.27,2.71,0a8,8,0,0,1,3.47,1.73,14.63,14.63,0,0,1,4.74,15.36,11.41,11.41,0,0,1-10.48-17.15" style="fill: rgb(224, 224, 224); transform-origin: 637.13px 114.162px;" id="ele1s5m8ane19" class="animable"></path><path d="M671.26,87.94c.48-1.22,1.17-.86,2.43-1.2a8,8,0,0,1,3.88.07,14.64,14.64,0,0,1,10.89,11.83,11.42,11.42,0,0,1-16.85-11" style="fill: rgb(224, 224, 224); transform-origin: 679.86px 93.2856px;" id="eldewlix2sxfg" class="animable"></path><path d="M623.28,130.06a13.18,13.18,0,0,1,20.72,1,16.32,16.32,0,0,1-10.75,4.24,16.66,16.66,0,0,1-10.82-4.38" style="fill: rgb(224, 224, 224); transform-origin: 633.215px 130.401px;" id="el06q7ol98lt58" class="animable"></path><path d="M626.51,112A13.36,13.36,0,0,1,613,96,12,12,0,0,1,627,111.84" style="fill: rgb(224, 224, 224); transform-origin: 620.239px 103.844px;" id="elcam0zhedyd" class="animable"></path><path d="M640.34,90.7a13.35,13.35,0,0,1-18-10.55,12,12,0,0,1,18.4,10.28" style="fill: rgb(224, 224, 224); transform-origin: 631.54px 84.9442px;" id="elk40ah0uogh" class="animable"></path><path d="M645,83.76a13.36,13.36,0,0,1,18,10.55A12,12,0,0,1,644.61,84" style="fill: rgb(224, 224, 224); transform-origin: 653.805px 89.5146px;" id="elgrcc9d8rj0u" class="animable"></path><path d="M650.51,80a13.37,13.37,0,0,1-7.11-19.64A12,12,0,0,1,651,80.05" style="fill: rgb(224, 224, 224); transform-origin: 647.652px 70.205px;" id="el5hukkqrihsr" class="animable"></path><path d="M664.69,80.7a13.35,13.35,0,0,1,10.9-17.81A12,12,0,0,1,665,81.08" style="fill: rgb(224, 224, 224); transform-origin: 670.599px 71.987px;" id="eld4s131brsbg" class="animable"></path><polyline points="607.55 176.5 600 129.11 657.87 129.81 652.16 175.88" style="fill: rgb(38, 50, 56); transform-origin: 628.935px 152.805px;" id="el6o2dz7umje3" class="animable"></polyline><path d="M632.52,120.45a9.88,9.88,0,0,0,9.61.81,10.38,10.38,0,0,0,5.25-8.3,11.83,11.83,0,0,0-9.59-.49,11.68,11.68,0,0,0-6.37,7.13" style="fill: rgb(233, 30, 99); transform-origin: 639.4px 116.912px;" id="el9mnr5xxwhu" class="animable"></path><path d="M659,130.66a9.88,9.88,0,0,0,9.61.81,10.41,10.41,0,0,0,5.25-8.3,11.1,11.1,0,0,0-16,6.64" style="fill: rgb(233, 30, 99); transform-origin: 665.86px 127.077px;" id="el5cfkqsvubw4" class="animable"></path><path d="M644.13,107.86a9.84,9.84,0,0,0,7.57,6,10.37,10.37,0,0,0,8.95-4,11.1,11.1,0,0,0-17-3.23" style="fill: rgb(233, 30, 99); transform-origin: 652.15px 108.932px;" id="elh1no7zr8v2e" class="animable"></path><path d="M653.78,119.67a9.88,9.88,0,0,0-8.64,4.28,10.42,10.42,0,0,0-.2,9.82,11.11,11.11,0,0,0,10.23-13.94" style="fill: rgb(233, 30, 99); transform-origin: 649.674px 126.714px;" id="eltxl38wamw2" class="animable"></path><path d="M663.1,138.33a9.86,9.86,0,0,0,.23,9.63,10.42,10.42,0,0,0,8.82,4.33,11.79,11.79,0,0,0-.55-9.58c-1.52-2.77-4.26-4.14-7.69-4.92" style="fill: rgb(233, 30, 99); transform-origin: 667.435px 145.043px;" id="elvoz1upzs3tr" class="animable"></path><path d="M678.48,140.52a7,7,0,0,0-2.29-1.46,10.22,10.22,0,0,0-3.13-.55,40.75,40.75,0,0,0-4.28.25,12.37,12.37,0,0,1-5.25-.45,8,8,0,0,1-4.34-4.19,23.84,23.84,0,0,1-1.87-6.4,18.36,18.36,0,0,0-2.23-6.57,23.06,23.06,0,0,0-4.89-5,23.72,23.72,0,0,1-4.69-4.76,15.64,15.64,0,0,1-2.33-10.89,15.34,15.34,0,0,1,2.84-7A13,13,0,0,1,647.41,92c.35-.32.53-.48.55-.46a3.92,3.92,0,0,1-.46.55,16.45,16.45,0,0,0-1.28,1.59,15.75,15.75,0,0,0-2.6,6.91A15.4,15.4,0,0,0,646,111.1a23.6,23.6,0,0,0,4.6,4.61,23.43,23.43,0,0,1,5,5.1,18.86,18.86,0,0,1,2.3,6.79,23.63,23.63,0,0,0,1.79,6.26,7.56,7.56,0,0,0,4,4,12.26,12.26,0,0,0,5,.49,36.84,36.84,0,0,1,4.32-.16,9.77,9.77,0,0,1,3.21.68A5.42,5.42,0,0,1,678,140a2.73,2.73,0,0,1,.36.41C678.46,140.46,678.49,140.52,678.48,140.52Z" style="fill: rgb(233, 30, 99); transform-origin: 660.739px 116.029px;" id="el12xf53qizaj" class="animable"></path><path d="M678.48,140.52a7,7,0,0,0-2.29-1.46,10.22,10.22,0,0,0-3.13-.55,40.75,40.75,0,0,0-4.28.25,12.37,12.37,0,0,1-5.25-.45,8,8,0,0,1-4.34-4.19,23.84,23.84,0,0,1-1.87-6.4,18.36,18.36,0,0,0-2.23-6.57,23.06,23.06,0,0,0-4.89-5,23.72,23.72,0,0,1-4.69-4.76,15.64,15.64,0,0,1-2.33-10.89,15.34,15.34,0,0,1,2.84-7A13,13,0,0,1,647.41,92c.35-.32.53-.48.55-.46a3.92,3.92,0,0,1-.46.55,16.45,16.45,0,0,0-1.28,1.59,15.75,15.75,0,0,0-2.6,6.91A15.4,15.4,0,0,0,646,111.1a23.6,23.6,0,0,0,4.6,4.61,23.43,23.43,0,0,1,5,5.1,18.86,18.86,0,0,1,2.3,6.79,23.63,23.63,0,0,0,1.79,6.26,7.56,7.56,0,0,0,4,4,12.26,12.26,0,0,0,5,.49,36.84,36.84,0,0,1,4.32-.16,9.77,9.77,0,0,1,3.21.68A5.42,5.42,0,0,1,678,140a2.73,2.73,0,0,1,.36.41C678.46,140.46,678.49,140.52,678.48,140.52Z" style="fill: rgb(233, 30, 99); transform-origin: 660.739px 116.029px;" id="elwufp0fqm7p" class="animable"></path><path d="M568,145.38A14.64,14.64,0,0,0,548.21,131,24.42,24.42,0,0,0,567.5,145.2" style="fill: rgb(233, 30, 99); transform-origin: 558.113px 137.719px;" id="elvlamtti0hqg" class="animable"></path><path d="M564.2,147.4c-2.83,3.1-2.65,8.1-.62,11.78s5.51,6.31,9,8.65a19,19,0,0,0-8.19-21.56" style="fill: rgb(233, 30, 99); transform-origin: 567.716px 157.05px;" id="elfwrxxqdvv3f" class="animable"></path><path d="M577.91,132.82a16.9,16.9,0,0,0,19.2,15.05c-1.1-4.55-2.93-9.13-6.44-12.22s-9-4.23-12.94-1.63" style="fill: rgb(233, 30, 99); transform-origin: 587.42px 140.308px;" id="elf4u0e6vwl24" class="animable"></path><path d="M577.82,128.18c-.71-4.14-4.8-7.14-9-7.53s-8.32,1.4-11.67,3.93a15.17,15.17,0,0,0,20.69,2" style="fill: rgb(233, 30, 99); transform-origin: 567.495px 125.174px;" id="elvrapzjkswep" class="animable"></path><path d="M556.26,163.4c-4,3.39-5,9.43-3.32,14.39s5.52,8.91,9.87,11.81c1.67-4.91,2.71-10.18,1.83-15.3s-4-10.05-8.71-12.14" style="fill: rgb(233, 30, 99); transform-origin: 558.56px 175.88px;" id="ela3wyi86suk" class="animable"></path><path d="M577.17,116.57a12.2,12.2,0,0,1,19.34-1.13,10.55,10.55,0,0,1-19,.49" style="fill: rgb(233, 30, 99); transform-origin: 586.84px 116.432px;" id="elcrz2ye735a9" class="animable"></path><path d="M582,104.63A15.88,15.88,0,0,1,561.8,92.22a36,36,0,0,1,9.56.14,15.54,15.54,0,0,1,8.47,4.17,8.4,8.4,0,0,1,2.21,8.1" style="fill: rgb(233, 30, 99); transform-origin: 572.058px 98.6344px;" id="ele608ziklnie" class="animable"></path><path d="M591.22,101.54a13,13,0,0,1-.08-20,27,27,0,0,1,5.67,12.1,10.07,10.07,0,0,1,0,5,4.6,4.6,0,0,1-3.5,3.28" style="fill: rgb(233, 30, 99); transform-origin: 591.806px 91.73px;" id="elv4dg24rghb" class="animable"></path><g id="el76way227skf"><g style="opacity: 0.4; transform-origin: 558.113px 137.719px;" class="animable"><path d="M568,145.38A14.64,14.64,0,0,0,548.21,131,24.42,24.42,0,0,0,567.5,145.2" id="elzx9vmnjxy9o" class="animable" style="transform-origin: 558.113px 137.719px;"></path></g></g><g id="eld9oq5unng14"><g style="opacity: 0.4; transform-origin: 567.716px 157.05px;" class="animable"><path d="M564.2,147.4c-2.83,3.1-2.65,8.1-.62,11.78s5.51,6.31,9,8.65a19,19,0,0,0-8.19-21.56" id="elmhnrjvqcrv" class="animable" style="transform-origin: 567.716px 157.05px;"></path></g></g><g id="elggasx8uv8vd"><g style="opacity: 0.4; transform-origin: 587.42px 140.308px;" class="animable"><path d="M577.91,132.82a16.9,16.9,0,0,0,19.2,15.05c-1.1-4.55-2.93-9.13-6.44-12.22s-9-4.23-12.94-1.63" id="elm0ejdewzp5" class="animable" style="transform-origin: 587.42px 140.308px;"></path></g></g><g id="ellqbbmd0cxgb"><g style="opacity: 0.4; transform-origin: 567.495px 125.174px;" class="animable"><path d="M577.82,128.18c-.71-4.14-4.8-7.14-9-7.53s-8.32,1.4-11.67,3.93a15.17,15.17,0,0,0,20.69,2" id="elgvo65d4eyth" class="animable" style="transform-origin: 567.495px 125.174px;"></path></g></g><g id="ela8qyqs896h7"><g style="opacity: 0.4; transform-origin: 558.56px 175.88px;" class="animable"><path d="M556.26,163.4c-4,3.39-5,9.43-3.32,14.39s5.52,8.91,9.87,11.81c1.67-4.91,2.71-10.18,1.83-15.3s-4-10.05-8.71-12.14" id="elcim3yhv001b" class="animable" style="transform-origin: 558.56px 175.88px;"></path></g></g><g id="eliu3o474chi"><g style="opacity: 0.4; transform-origin: 586.84px 116.432px;" class="animable"><path d="M577.17,116.57a12.2,12.2,0,0,1,19.34-1.13,10.55,10.55,0,0,1-19,.49" id="elwpk3ienbky" class="animable" style="transform-origin: 586.84px 116.432px;"></path></g></g><g id="elzp6aw1d44j"><g style="opacity: 0.4; transform-origin: 572.058px 98.6344px;" class="animable"><path d="M582,104.63A15.88,15.88,0,0,1,561.8,92.22a36,36,0,0,1,9.56.14,15.54,15.54,0,0,1,8.47,4.17,8.4,8.4,0,0,1,2.21,8.1" id="ele9ftlhdk18t" class="animable" style="transform-origin: 572.058px 98.6344px;"></path></g></g><g id="el4wwzqz5y1cy"><g style="opacity: 0.4; transform-origin: 591.806px 91.73px;" class="animable"><path d="M591.22,101.54a13,13,0,0,1-.08-20,27,27,0,0,1,5.67,12.1,10.07,10.07,0,0,1,0,5,4.6,4.6,0,0,1-3.5,3.28" id="el5xae97r3g6c" class="animable" style="transform-origin: 591.806px 91.73px;"></path></g></g><path d="M607.09,130.63a1.3,1.3,0,0,1,0-.32c0-.26,0-.57.06-1,.06-.83.13-2.07.16-3.66a32.79,32.79,0,0,0-2.15-13.15,20.07,20.07,0,0,0-5.29-7.44,14.14,14.14,0,0,0-9.62-3.54,12.19,12.19,0,0,0-5.43,1.36,10.81,10.81,0,0,0-4.19,4c-2.1,3.46-2.62,7.8-2.43,12.09s.76,8.57.28,12.72a19.29,19.29,0,0,1-1.58,5.9,12.39,12.39,0,0,1-3.56,4.66,17.81,17.81,0,0,1-5,2.54,24.59,24.59,0,0,0-4.67,2.12,16.87,16.87,0,0,0-6.14,6.68A16.18,16.18,0,0,0,555.8,161a17.21,17.21,0,0,0,.93,5.65,21.16,21.16,0,0,0,2.19,4.4s-.08-.08-.21-.25a8,8,0,0,1-.56-.78,15.17,15.17,0,0,1-1.65-3.29,17,17,0,0,1-1-5.73,16.48,16.48,0,0,1,1.73-7.52,17.39,17.39,0,0,1,6.25-6.93c2.87-1.9,6.64-2.37,9.55-4.66s4.45-6.2,4.89-10.18-.15-8.27-.3-12.63.33-8.82,2.54-12.43a11.42,11.42,0,0,1,4.43-4.22,12.5,12.5,0,0,1,5.7-1.4,14.58,14.58,0,0,1,10,3.72,20.44,20.44,0,0,1,5.36,7.66,27.33,27.33,0,0,1,1.82,7.51,41.5,41.5,0,0,1,.17,5.82c-.07,1.59-.19,2.83-.28,3.66,0,.39-.09.7-.12.95S607.11,130.63,607.09,130.63Z" style="fill: rgb(233, 30, 99); transform-origin: 581.587px 136.039px;" id="elb328dhynz16" class="animable"></path><g id="elk1746f4gdq"><g style="opacity: 0.4; transform-origin: 581.587px 136.039px;" class="animable"><path d="M607.09,130.63a1.3,1.3,0,0,1,0-.32c0-.26,0-.57.06-1,.06-.83.13-2.07.16-3.66a32.79,32.79,0,0,0-2.15-13.15,20.07,20.07,0,0,0-5.29-7.44,14.14,14.14,0,0,0-9.62-3.54,12.19,12.19,0,0,0-5.43,1.36,10.81,10.81,0,0,0-4.19,4c-2.1,3.46-2.62,7.8-2.43,12.09s.76,8.57.28,12.72a19.29,19.29,0,0,1-1.58,5.9,12.39,12.39,0,0,1-3.56,4.66,17.81,17.81,0,0,1-5,2.54,24.59,24.59,0,0,0-4.67,2.12,16.87,16.87,0,0,0-6.14,6.68A16.18,16.18,0,0,0,555.8,161a17.21,17.21,0,0,0,.93,5.65,21.16,21.16,0,0,0,2.19,4.4s-.08-.08-.21-.25a8,8,0,0,1-.56-.78,15.17,15.17,0,0,1-1.65-3.29,17,17,0,0,1-1-5.73,16.48,16.48,0,0,1,1.73-7.52,17.39,17.39,0,0,1,6.25-6.93c2.87-1.9,6.64-2.37,9.55-4.66s4.45-6.2,4.89-10.18-.15-8.27-.3-12.63.33-8.82,2.54-12.43a11.42,11.42,0,0,1,4.43-4.22,12.5,12.5,0,0,1,5.7-1.4,14.58,14.58,0,0,1,10,3.72,20.44,20.44,0,0,1,5.36,7.66,27.33,27.33,0,0,1,1.82,7.51,41.5,41.5,0,0,1,.17,5.82c-.07,1.59-.19,2.83-.28,3.66,0,.39-.09.7-.12.95S607.11,130.63,607.09,130.63Z" id="el0t5wl0zzua9b" class="animable" style="transform-origin: 581.587px 136.039px;"></path></g></g><path d="M691.35,120.29a12.41,12.41,0,0,0,.86-4.24,10.63,10.63,0,0,0-1.12-4.89,10.2,10.2,0,0,0-4.72-4.56,10.36,10.36,0,0,0-3.72-1,12.31,12.31,0,0,0-4.16.49c-2.84.75-5.64,2.36-9,3a10.64,10.64,0,0,1-5.22-.13,7.83,7.83,0,0,1-4.25-3.4c-2-3.13-2.59-7.06-5-10a10,10,0,0,0-4.57-3,12.79,12.79,0,0,0-5.34-.54,13.67,13.67,0,0,0-8.88,4.62,20.88,20.88,0,0,0-4.41,8.16,24.53,24.53,0,0,0-1,8.08,87.41,87.41,0,0,0,1.51,11.82c.23,1.35.41,2.42.55,3.2,0,.34.09.61.12.84s0,.29,0,.29a1.55,1.55,0,0,1-.08-.28c0-.22-.11-.49-.19-.82l-.66-3.19A79.66,79.66,0,0,1,630.37,113a24.92,24.92,0,0,1,.93-8.24,21.31,21.31,0,0,1,4.48-8.4,16,16,0,0,1,4.06-3.25,14,14,0,0,1,10.79-1,10.54,10.54,0,0,1,4.85,3.17c2.58,3.1,3.13,7.06,5.07,10a7.25,7.25,0,0,0,3.91,3.16,10.17,10.17,0,0,0,4.93.13c3.23-.62,6.05-2.21,9-3a12.73,12.73,0,0,1,4.34-.47,10.85,10.85,0,0,1,3.87,1.09,10.55,10.55,0,0,1,4.84,4.8,10.76,10.76,0,0,1,1.06,5.06,10,10,0,0,1-.63,3.2A5.46,5.46,0,0,1,691.35,120.29Z" style="fill: rgb(233, 30, 99); transform-origin: 661.42px 110.247px;" id="elhp2vtwfe8z" class="animable"></path><path d="M657.51,99.29a11.24,11.24,0,0,0,10.32.68,10.39,10.39,0,0,0,5.25-8.3,11.83,11.83,0,0,0-9.59-.49,11.65,11.65,0,0,0-6.37,7.13" style="fill: rgb(233, 30, 99); transform-origin: 665.1px 95.6523px;" id="eliyy5a8m3n9" class="animable"></path><path d="M668.47,109.24a11.24,11.24,0,0,0,4.8,9.17,10.4,10.4,0,0,0,9.82.16,11.1,11.1,0,0,0-14-10.17" style="fill: rgb(233, 30, 99); transform-origin: 675.78px 113.867px;" id="elxyhg4hg2iw" class="animable"></path><path d="M687.51,107a11.22,11.22,0,0,0,10.33-.43,10.4,10.4,0,0,0,4.34-8.81A11.1,11.1,0,0,0,687,106.1" style="fill: rgb(233, 30, 99); transform-origin: 694.593px 102.486px;" id="el07zvhajk82to" class="animable"></path><path d="M641.52,92.7c-2.77-2.39-4.63-6.59-4.1-9.74a10.41,10.41,0,0,1,6.38-7.47,11.78,11.78,0,0,1,3.3,9,11.63,11.63,0,0,1-4.93,8.2" style="fill: rgb(233, 30, 99); transform-origin: 642.228px 84.095px;" id="elwijsn7fdoyl" class="animable"></path><path d="M567.22,79.08s0-.09.11-.25l.38-.71c.36-.62.9-1.52,1.68-2.62a28.25,28.25,0,0,1,8.28-7.83A20.33,20.33,0,0,1,585.1,65a18.35,18.35,0,0,1,9,.94,14.67,14.67,0,0,1,7.72,6.33c1.77,3.09,2.34,6.73,3.38,10.21a18.37,18.37,0,0,0,2.16,4.86,14.64,14.64,0,0,0,3.66,3.62c1.39,1,2.83,1.93,4.14,3a18,18,0,0,1,3.36,3.64A22.58,22.58,0,0,1,622,106a30.07,30.07,0,0,1,.46,7.9,60.08,60.08,0,0,1-2,11.23c-.35,1.3-.63,2.31-.83,3a7.11,7.11,0,0,1-.34,1,6.7,6.7,0,0,1,.21-1.06c.18-.74.42-1.75.72-3a63.53,63.53,0,0,0,1.81-11.2,29.62,29.62,0,0,0-.52-7.77,22.15,22.15,0,0,0-3.41-8.18,17.09,17.09,0,0,0-3.26-3.5c-1.28-1-2.71-1.94-4.12-3a15.15,15.15,0,0,1-3.82-3.76,19,19,0,0,1-2.24-5c-1-3.54-1.62-7.12-3.32-10.09a14.07,14.07,0,0,0-7.39-6.09,18,18,0,0,0-8.75-1,20,20,0,0,0-7.27,2.6,28.85,28.85,0,0,0-8.31,7.58c-.81,1.08-1.38,2-1.77,2.54A6.33,6.33,0,0,1,567.22,79.08Z" style="fill: rgb(233, 30, 99); transform-origin: 594.881px 96.9686px;" id="elpz435lkyz3s" class="animable"></path><path d="M612.68,91.83c-1-.9-1.43-.28-2.71,0a8,8,0,0,0-3.48,1.73,14.63,14.63,0,0,0-4.74,15.36,11.42,11.42,0,0,0,10.49-17.16" style="fill: rgb(233, 30, 99); transform-origin: 607.484px 100.149px;" id="el62vvubzlxlo" class="animable"></path><path d="M573.36,73.93c-.49-1.22-1.17-.86-2.44-1.2a8,8,0,0,0-3.88.07,14.64,14.64,0,0,0-10.89,11.82,11.41,11.41,0,0,0,16.85-11" style="fill: rgb(233, 30, 99); transform-origin: 564.755px 79.2744px;" id="elnjsnw0e5879" class="animable"></path><path d="M621.34,116.05a13.19,13.19,0,0,0-20.73,1,16.32,16.32,0,0,0,10.75,4.24,16.74,16.74,0,0,0,10.83-4.38" style="fill: rgb(233, 30, 99); transform-origin: 611.4px 116.391px;" id="el1yhsceheiivj" class="animable"></path><path d="M618.11,98A13.36,13.36,0,0,0,631.6,82a12,12,0,0,0-13.94,15.81" style="fill: rgb(233, 30, 99); transform-origin: 624.399px 89.853px;" id="elu31777eb54q" class="animable"></path><path d="M604.27,76.69a13.35,13.35,0,0,0,18-10.55,12,12,0,0,0-18.4,10.28" style="fill: rgb(233, 30, 99); transform-origin: 613.07px 70.9342px;" id="el56scfh973gb" class="animable"></path><path d="M599.63,69.75a13.36,13.36,0,0,0-18,10.55A12,12,0,0,0,600,70" style="fill: rgb(233, 30, 99); transform-origin: 590.815px 75.4983px;" id="el5ftvf2b5i7w" class="animable"></path><path d="M594.1,66a13.37,13.37,0,0,0,7.11-19.64A12,12,0,0,0,593.64,66" style="fill: rgb(233, 30, 99); transform-origin: 596.99px 56.18px;" id="elu4tvhpxpzzp" class="animable"></path><path d="M579.93,66.69A13.38,13.38,0,0,0,569,48.87a12,12,0,0,0,10.64,18.2" style="fill: rgb(233, 30, 99); transform-origin: 573.998px 57.9728px;" id="elmgrsowvp5g" class="animable"></path><polygon points="599.27 171.01 603.7 176.5 658.15 176.5 661.86 171.01 599.27 171.01" style="fill: rgb(38, 50, 56); transform-origin: 630.565px 173.755px;" id="ellr5bpq3q0hl" class="animable"></polygon><path d="M660.66,171c0,.17-13.38.31-29.88.31s-29.89-.14-29.89-.31,13.38-.31,29.89-.31S660.66,170.79,660.66,171Z" style="fill: rgb(69, 90, 100); transform-origin: 630.775px 171px;" id="el2wepfifjra7" class="animable"></path><path d="M654.54,150.28s-.1.17-.34.45a11.63,11.63,0,0,1-1.11,1.17,20.27,20.27,0,0,1-4.86,3.37,21.33,21.33,0,0,1-8.5,2.18,20.31,20.31,0,0,1-5.2-.43,30.77,30.77,0,0,1-5.3-1.76c-3.51-1.5-6.7-3.2-9.81-4.19a16.86,16.86,0,0,0-8.47-.81,10.91,10.91,0,0,0-5.2,2.41,21.29,21.29,0,0,0-1.48,1.54s.07-.18.27-.49a7.5,7.5,0,0,1,1-1.23,10.82,10.82,0,0,1,5.28-2.67,17,17,0,0,1,8.73.7c3.19,1,6.41,2.69,9.88,4.16a31.66,31.66,0,0,0,5.19,1.74,20.5,20.5,0,0,0,5.05.45,21.35,21.35,0,0,0,8.33-2A25.45,25.45,0,0,0,654.54,150.28Z" style="fill: rgb(69, 90, 100); transform-origin: 629.405px 153.508px;" id="elfslbxcyyhi9" class="animable"></path><path d="M655.08,146s-.11.16-.37.42a13.32,13.32,0,0,1-1.19,1.09,23,23,0,0,1-5,3.13,23.78,23.78,0,0,1-8.56,2,23.39,23.39,0,0,1-5.22-.35,35.62,35.62,0,0,1-5.38-1.52c-3.59-1.31-6.89-2.81-10.05-3.69a20,20,0,0,0-8.54-.77,12.82,12.82,0,0,0-5.39,2.06c-1.13.79-1.63,1.4-1.67,1.35s.1-.16.34-.45a9.25,9.25,0,0,1,1.19-1.1,12.5,12.5,0,0,1,5.46-2.3,19.94,19.94,0,0,1,8.77.66c3.22.86,6.55,2.36,10.1,3.65a35.18,35.18,0,0,0,5.29,1.51,22.71,22.71,0,0,0,5.07.37,23.72,23.72,0,0,0,8.41-1.87A29.28,29.28,0,0,0,655.08,146Z" style="fill: rgb(69, 90, 100); transform-origin: 629.392px 149.159px;" id="el1680swwimju" class="animable"></path><rect x="572.21" y="182.6" width="5.32" height="14.82" style="fill: rgb(69, 90, 100); transform-origin: 574.87px 190.01px;" id="eljx2pymarmk" class="animable"></rect><rect x="648.05" y="182.6" width="5.32" height="14.82" style="fill: rgb(69, 90, 100); transform-origin: 650.71px 190.01px;" id="eloswh804kpx9" class="animable"></rect></g><g id="freepik--Desk--inject-33" class="animable" style="transform-origin: 393.425px 464.48px;"><path d="M699.69,464.48c0,.15-137.13.26-306.25.26s-306.28-.11-306.28-.26,137.1-.26,306.28-.26S699.69,464.34,699.69,464.48Z" style="fill: rgb(38, 50, 56); transform-origin: 393.425px 464.48px;" id="elwm122yywsu" class="animable"></path></g><g id="freepik--pencil-cup--inject-33" class="animable" style="transform-origin: 360.965px 436.795px;"><path d="M359.41,447.52a3,3,0,0,0,.1.52s.05.11.1.09.05-.07,0-.11,0-.36-.07-.53" style="fill: rgb(38, 50, 56); transform-origin: 359.529px 447.811px;" id="elkpo7ivjy4ih" class="animable"></path><path d="M351.11,414c.76,3.64,6.34,30.09,6.34,30.09l2.75-.59-6.11-30.1a1.53,1.53,0,0,0-1.69-1.22h0A1.52,1.52,0,0,0,351.11,414Z" style="fill: rgb(69, 90, 100); transform-origin: 355.639px 428.129px;" id="elkc4iqw6lvub" class="animable"></path><path d="M351.64,412.86l-.32-2a.74.74,0,0,1,.58-.83h0a.73.73,0,0,1,.86.61l.29,1.91Z" style="fill: rgb(69, 90, 100); transform-origin: 352.181px 411.438px;" id="elwlheaif451" class="animable"></path><path d="M354.64,416.19a4.67,4.67,0,0,1-1.42.3,5.17,5.17,0,0,1-1.46.1,5,5,0,0,1,1.43-.31A4.87,4.87,0,0,1,354.64,416.19Z" style="fill: rgb(38, 50, 56); transform-origin: 353.2px 416.388px;" id="el435wsp1k04d" class="animable"></path><path d="M351.78,419.94a6.6,6.6,0,0,1-.42-1.29c-.23-.82-.5-1.95-.73-3.22a4.26,4.26,0,0,1-.07-1.84,2,2,0,0,1,.91-1.2,1.86,1.86,0,0,1,1-.25.87.87,0,0,1,.36.06,2.63,2.63,0,0,1-.36,0,2,2,0,0,0-.91.3,1.92,1.92,0,0,0-.8,1.12,4.4,4.4,0,0,0,.09,1.75c.23,1.27.48,2.4.66,3.22A10,10,0,0,1,351.78,419.94Z" style="fill: rgb(38, 50, 56); transform-origin: 351.661px 416.039px;" id="eldkvuqjnaq4" class="animable"></path><path d="M357.45,444.1s1.5,3.64,2.06,3.53.69-4.12.69-4.12Z" style="fill: rgb(69, 90, 100); transform-origin: 358.825px 445.571px;" id="elylmz3dhdvip" class="animable"></path><path d="M360.11,443.62a9.15,9.15,0,0,0-1.36.08,8.29,8.29,0,0,0-1.31.38,1.52,1.52,0,0,1,.35-.19,4,4,0,0,1,.94-.27,4.44,4.44,0,0,1,1-.06A2.48,2.48,0,0,1,360.11,443.62Z" style="fill: rgb(38, 50, 56); transform-origin: 358.775px 443.817px;" id="elgpvtkds92b" class="animable"></path><path d="M359.41,451.9a3,3,0,0,0-.07.52c0,.05,0,.12.06.12s.07-.05.08-.1l.1-.52" style="fill: rgb(38, 50, 56); transform-origin: 359.46px 452.22px;" id="el9zdinwqctr5" class="animable"></path><path d="M362.32,417.49c-.45,3.7-3.67,30.54-3.67,30.54l2.8.32,3.89-30.47a1.51,1.51,0,0,0-1.21-1.69h0A1.53,1.53,0,0,0,362.32,417.49Z" style="fill: rgb(69, 90, 100); transform-origin: 362.002px 432.256px;" id="el6yry61xmyyg" class="animable"></path><path d="M363.2,416.58l.33-2a.73.73,0,0,1,.81-.6h0a.73.73,0,0,1,.62.85l-.33,1.91Z" style="fill: rgb(69, 90, 100); transform-origin: 364.086px 415.357px;" id="el61vrcuimx75" class="animable"></path><path d="M365,420.7a5.51,5.51,0,0,1-1.45-.17,5.82,5.82,0,0,1-1.41-.38,4.66,4.66,0,0,1,1.45.17A4.91,4.91,0,0,1,365,420.7Z" style="fill: rgb(38, 50, 56); transform-origin: 363.57px 420.423px;" id="el6fim23d7dsg" class="animable"></path><path d="M361.05,423.33a7.7,7.7,0,0,1,0-1.37c.05-.84.16-2,.35-3.27a4.21,4.21,0,0,1,.52-1.76,2,2,0,0,1,1.25-.85,2,2,0,0,1,1,.08c.22.08.33.17.32.18s-.12,0-.35-.1a1.86,1.86,0,0,0-.95,0,1.83,1.83,0,0,0-1.12.8,4.29,4.29,0,0,0-.48,1.69c-.19,1.27-.32,2.42-.4,3.26A11.05,11.05,0,0,1,361.05,423.33Z" style="fill: rgb(38, 50, 56); transform-origin: 362.755px 419.69px;" id="ellnhuxp334vk" class="animable"></path><path d="M358.65,448s.25,3.93.82,4,2-3.68,2-3.68Z" style="fill: rgb(69, 90, 100); transform-origin: 360.06px 450px;" id="elsgiv2oc07ei" class="animable"></path><path d="M361.32,448.43a9.52,9.52,0,0,0-1.31-.37,8.32,8.32,0,0,0-1.37-.05,1.32,1.32,0,0,1,.4-.07,4.27,4.27,0,0,1,1,0,4.56,4.56,0,0,1,.94.26A1.59,1.59,0,0,1,361.32,448.43Z" style="fill: rgb(38, 50, 56); transform-origin: 359.98px 448.17px;" id="el7py15r7nzxa" class="animable"></path><path d="M369.47,446.92a3,3,0,0,0,0,.52c0,.05,0,.12.09.11s.05-.06.06-.11v-.53" style="fill: rgb(38, 50, 56); transform-origin: 369.54px 447.23px;" id="elpga3lyh70ro" class="animable"></path><path d="M366.72,412.5c.16,3.72,1.37,30.72,1.37,30.72l2.81-.13-1.14-30.7a1.51,1.51,0,0,0-1.47-1.47h0A1.52,1.52,0,0,0,366.72,412.5Z" style="fill: rgb(69, 90, 100); transform-origin: 368.809px 427.07px;" id="elf7v57s0qbhg" class="animable"></path><path d="M367.43,411.45v-2a.74.74,0,0,1,.7-.73h0a.73.73,0,0,1,.75.74l0,1.94Z" style="fill: rgb(69, 90, 100); transform-origin: 368.155px 410.085px;" id="elscjd5uzpm8" class="animable"></path><path d="M369.85,415.23a4.78,4.78,0,0,1-1.45.06,5.08,5.08,0,0,1-1.45-.14,5,5,0,0,1,1.45-.07A4.74,4.74,0,0,1,369.85,415.23Z" style="fill: rgb(38, 50, 56); transform-origin: 368.4px 415.188px;" id="elwd5tlp5wcu" class="animable"></path><path d="M366.42,418.46a6.85,6.85,0,0,1-.21-1.35c-.09-.83-.17-2-.19-3.28a4.24,4.24,0,0,1,.23-1.83,1.94,1.94,0,0,1,1.09-1,1.89,1.89,0,0,1,1-.1c.24.05.36.12.35.13s-.13,0-.36-.05a2,2,0,0,0-.94.16,1.8,1.8,0,0,0-1,1,4.2,4.2,0,0,0-.2,1.74c0,1.28.08,2.44.13,3.28A11.31,11.31,0,0,1,366.42,418.46Z" style="fill: rgb(38, 50, 56); transform-origin: 367.346px 414.666px;" id="elv3wn6syrzis" class="animable"></path><path d="M368.09,443.22s.88,3.84,1.46,3.82,1.35-4,1.35-4Z" style="fill: rgb(69, 90, 100); transform-origin: 369.495px 445.04px;" id="el7qlr1wuy1wy" class="animable"></path><path d="M370.79,443.18a9.92,9.92,0,0,0-1.36-.15,9.77,9.77,0,0,0-1.35.17,1.41,1.41,0,0,1,.38-.13,4.73,4.73,0,0,1,1-.12,4.18,4.18,0,0,1,1,.11A1.7,1.7,0,0,1,370.79,443.18Z" style="fill: rgb(38, 50, 56); transform-origin: 369.435px 443.075px;" id="eln92wna5mx" class="animable"></path><polygon points="349.59 464.87 346.42 430.94 375.51 430.94 372.61 464.75 349.59 464.87" style="fill: rgb(233, 30, 99); transform-origin: 360.965px 447.905px;" id="el9j0cy8pobrv" class="animable"></polygon><path d="M374.61,442.09c0,.14-6.07.26-13.55.26s-13.55-.12-13.55-.26,6.06-.26,13.55-.26S374.61,441.94,374.61,442.09Z" style="fill: rgb(38, 50, 56); transform-origin: 361.06px 442.09px;" id="eldjf9dx5idr8" class="animable"></path><path d="M374.26,445.21c0,.15-6,.26-13.38.26s-13.37-.11-13.37-.26,6-.26,13.37-.26S374.26,445.07,374.26,445.21Z" style="fill: rgb(38, 50, 56); transform-origin: 360.885px 445.21px;" id="elewd49zcrpl" class="animable"></path><path d="M374.26,449c0,.15-5.91.26-13.2.26s-13.2-.11-13.2-.26,5.91-.26,13.2-.26S374.26,448.89,374.26,449Z" style="fill: rgb(38, 50, 56); transform-origin: 361.06px 449px;" id="el0eugwrnkrluj" class="animable"></path></g><g id="freepik--Device--inject-33" class="animable" style="transform-origin: 500.56px 372.405px;"><path d="M385.1,458.64H490.8a5.1,5.1,0,0,1,5.1,5.1v1.06a0,0,0,0,1,0,0H380a0,0,0,0,1,0,0v-1.06A5.1,5.1,0,0,1,385.1,458.64Z" style="fill: rgb(69, 90, 100); transform-origin: 437.95px 461.72px;" id="el5caqy72rdwf" class="animable"></path><rect x="417.53" y="280.01" width="203.59" height="143.88" style="fill: rgb(69, 90, 100); transform-origin: 519.325px 351.95px;" id="eljglm815s3e" class="animable"></rect><rect x="500.82" y="388.04" width="51.31" height="76.62" style="fill: rgb(69, 90, 100); transform-origin: 526.475px 426.35px;" id="el95b4jonf6sd" class="animable"></rect><path d="M551.91,421.79a1.15,1.15,0,0,1,0-.17c0-.13,0-.29,0-.49,0-.47,0-1.12,0-1.93,0-1.73,0-4.19,0-7.28.06-6.29.15-15.15.25-25.63l.23.24-25.78,0-25.78,0,.24-.24c0,10.48-.08,19.35-.1,25.63,0,3.1,0,5.56-.07,7.28,0,.82,0,1.46,0,1.93l0,.49c0,.11,0,.17,0,.17s0-.06,0-.17,0-.29,0-.49c0-.47,0-1.11,0-1.93,0-1.72,0-4.18-.06-7.28,0-6.28-.06-15.15-.1-25.63v-.24h.24l25.78,0,25.78,0h.24v.24c-.18,10.48-.33,19.35-.43,25.63-.07,3.1-.13,5.56-.17,7.28,0,.82,0,1.46-.06,1.93,0,.2,0,.36,0,.49S551.92,421.79,551.91,421.79Z" style="fill: rgb(38, 50, 56); transform-origin: 526.76px 403.92px;" id="elz6xhqvguqvb" class="animable"></path><path d="M507.41,463.73c-.15,0-.26-17.09-.26-38.17s.11-38.17.26-38.17.26,17.08.26,38.17S507.55,463.73,507.41,463.73Z" style="fill: rgb(38, 50, 56); transform-origin: 507.41px 425.56px;" id="el1ncf31hq6hp" class="animable"></path><path d="M425.68,423.89c-.14,0-.26-32.06-.26-71.59s.12-71.59.26-71.59.26,32,.26,71.59S425.83,423.89,425.68,423.89Z" style="fill: rgb(38, 50, 56); transform-origin: 425.68px 352.3px;" id="elpzxhj6kukwo" class="animable"></path><path d="M552.78,368.3a5.93,5.93,0,0,0,1.33-.28,4,4,0,0,0,2.48-2.75,4.29,4.29,0,0,0,.13-1.31c0-.48,0-1,0-1.49a3.94,3.94,0,0,0-1.37-2.86,3.87,3.87,0,0,0-1.6-.82,8.2,8.2,0,0,0-2-.11l-4.36,0-47.7.07a3.82,3.82,0,0,0-2.87,1.32,4,4,0,0,0-.93,3c0,.56,0,1.15,0,1.66a3.79,3.79,0,0,0,3,3.21,8.12,8.12,0,0,0,1.58.08h11l21.45.06,14.46.08,3.93.05,1,0,.35,0-.35,0-1,0-3.93,0-14.46.09-21.45.05h-11a8.82,8.82,0,0,1-1.68-.09,4.28,4.28,0,0,1-3.41-3.64,14.52,14.52,0,0,1-.05-1.73,4.56,4.56,0,0,1,1.06-3.36,4.37,4.37,0,0,1,3.26-1.49l47.7.08,4.36,0a8.1,8.1,0,0,1,2,.14,4.14,4.14,0,0,1,1.71.9,4.2,4.2,0,0,1,1.43,3.07c0,.52,0,1,0,1.5a4.62,4.62,0,0,1-.15,1.36,4.08,4.08,0,0,1-2.65,2.8,3.8,3.8,0,0,1-1,.19Z" style="fill: rgb(38, 50, 56); transform-origin: 526.082px 363.199px;" id="elr4onc674f4" class="animable"></path></g><g id="freepik--Calendar--inject-33" class="animable" style="transform-origin: 415.15px 192.995px;"><rect x="338.7" y="124.82" width="152.72" height="136.64" style="fill: rgb(250, 250, 250); transform-origin: 415.06px 193.14px;" id="elji973gxsnts" class="animable"></rect><path d="M491.43,261.45s0-.87,0-2.53,0-4.13,0-7.33c0-6.41-.06-15.79-.1-27.73,0-23.88-.11-58-.18-99l.36.36-152.71.06h0l.43-.42c0,49.71,0,96.48-.05,136.63l-.38-.37,110.46.19,31.16.1,8.25,0,2.12,0,.74,0s-.23,0-.69,0l-2.09,0-8.18,0-31.07.1-110.7.19h-.37v-.38c0-40.15,0-86.92-.05-136.63v-.43h.44l152.71.07h.36v.36c-.08,41.15-.14,75.34-.19,99.27,0,11.9-.07,21.25-.09,27.65,0,3.16,0,5.59,0,7.25S491.43,261.45,491.43,261.45Z" style="fill: rgb(38, 50, 56); transform-origin: 415.135px 192.98px;" id="el5w8wixhhjly" class="animable"></path><path d="M491.43,261.45s0-.87,0-2.53,0-4.13,0-7.32c0-6.42-.05-15.8-.09-27.74,0-23.87-.11-58-.18-99l.35.34-152.71.07h0l.41-.41c0,49.71,0,96.48-.05,136.63l-.36-.36,110.46.19,31.16.09,8.25,0,2.12,0,.74,0s-.23,0-.7,0l-2.08,0-8.18.05-31.07.09-110.7.18h-.36v-.36c0-40.15,0-86.92,0-136.63v-.41h.43l152.71.06h.34v.35c-.07,41.15-.13,75.33-.17,99.26,0,11.91-.07,21.26-.09,27.66,0,3.16,0,5.59,0,7.25S491.43,261.45,491.43,261.45Z" style="fill: rgb(38, 50, 56); transform-origin: 415.18px 193.03px;" id="elisiib68c4zp" class="animable"></path><path d="M397.26,149.1c0,.22-8,.4-17.95.4s-17.95-.18-17.95-.4,8-.41,17.95-.41S397.26,148.87,397.26,149.1Z" style="fill: rgb(38, 50, 56); transform-origin: 379.31px 149.095px;" id="el53gf9pmigsc" class="animable"></path><path d="M462,159.36c0,.22-22.08.4-49.32.4s-49.32-.18-49.32-.4,22.08-.41,49.32-.41S462,159.13,462,159.36Z" style="fill: rgb(38, 50, 56); transform-origin: 412.68px 159.355px;" id="eldlm089lz2wv" class="animable"></path><rect x="361.62" y="176.73" width="6.43" height="6.43" style="fill: rgb(38, 50, 56); transform-origin: 364.835px 179.945px;" id="elt3vim8aomai" class="animable"></rect><rect x="377.46" y="176.73" width="6.43" height="6.43" style="fill: rgb(38, 50, 56); transform-origin: 380.675px 179.945px;" id="eldd98usih9vl" class="animable"></rect><rect x="393.59" y="176.44" width="6.43" height="6.43" style="fill: rgb(233, 30, 99); transform-origin: 396.805px 179.655px;" id="elvkeretds82" class="animable"></rect><rect x="409.13" y="176.73" width="6.43" height="6.43" style="fill: rgb(38, 50, 56); transform-origin: 412.345px 179.945px;" id="elyo3h8huxxun" class="animable"></rect><rect x="424.97" y="176.73" width="6.43" height="6.43" style="fill: rgb(38, 50, 56); transform-origin: 428.185px 179.945px;" id="eld86aamahydv" class="animable"></rect><rect x="440.81" y="176.73" width="6.43" height="6.43" style="fill: rgb(38, 50, 56); transform-origin: 444.025px 179.945px;" id="elxe51nnk3rr9" class="animable"></rect><rect x="456.65" y="176.73" width="6.43" height="6.43" style="fill: rgb(38, 50, 56); transform-origin: 459.865px 179.945px;" id="el1u6qanraday" class="animable"></rect><rect x="361.62" y="190.41" width="6.43" height="6.43" style="fill: rgb(38, 50, 56); transform-origin: 364.835px 193.625px;" id="el34pe4xfswg4" class="animable"></rect><rect x="377.46" y="190.41" width="6.43" height="6.43" style="fill: rgb(38, 50, 56); transform-origin: 380.675px 193.625px;" id="elipmerra75s" class="animable"></rect><rect x="393.3" y="190.41" width="6.43" height="6.43" style="fill: rgb(38, 50, 56); transform-origin: 396.515px 193.625px;" id="el7fp9zg3h1rg" class="animable"></rect><rect x="409.13" y="190.41" width="6.43" height="6.43" style="fill: rgb(38, 50, 56); transform-origin: 412.345px 193.625px;" id="elp21e4zhm26r" class="animable"></rect><rect x="424.97" y="190.41" width="6.43" height="6.43" style="fill: rgb(38, 50, 56); transform-origin: 428.185px 193.625px;" id="eldau3p3xigz" class="animable"></rect><rect x="441.1" y="190.12" width="6.43" height="6.43" style="fill: rgb(233, 30, 99); transform-origin: 444.315px 193.335px;" id="ely5ipnbgtwaa" class="animable"></rect><rect x="456.65" y="190.41" width="6.43" height="6.43" style="fill: rgb(38, 50, 56); transform-origin: 459.865px 193.625px;" id="elzp6o1zwklmr" class="animable"></rect><rect x="361.62" y="204.09" width="6.43" height="6.43" style="fill: rgb(38, 50, 56); transform-origin: 364.835px 207.305px;" id="el6hg5nxd84ke" class="animable"></rect><rect x="377.75" y="203.8" width="6.43" height="6.43" style="fill: rgb(233, 30, 99); transform-origin: 380.965px 207.015px;" id="elffwf4guo4wf" class="animable"></rect><rect x="393.3" y="204.09" width="6.43" height="6.43" style="fill: rgb(38, 50, 56); transform-origin: 396.515px 207.305px;" id="elo26lpfyp5vq" class="animable"></rect><rect x="409.13" y="204.09" width="6.43" height="6.43" style="fill: rgb(38, 50, 56); transform-origin: 412.345px 207.305px;" id="el6bu780t6t38" class="animable"></rect><rect x="424.97" y="204.09" width="6.43" height="6.43" style="fill: rgb(38, 50, 56); transform-origin: 428.185px 207.305px;" id="elwk3uktekwfa" class="animable"></rect><rect x="440.81" y="204.09" width="6.43" height="6.43" style="fill: rgb(38, 50, 56); transform-origin: 444.025px 207.305px;" id="el4gkovso43y5" class="animable"></rect><rect x="456.65" y="204.09" width="6.43" height="6.43" style="fill: rgb(38, 50, 56); transform-origin: 459.865px 207.305px;" id="elcnzdg6ehitr" class="animable"></rect><rect x="361.62" y="217.77" width="6.43" height="6.43" style="fill: rgb(38, 50, 56); transform-origin: 364.835px 220.985px;" id="elpns7ieic8ir" class="animable"></rect><rect x="377.46" y="217.77" width="6.43" height="6.43" style="fill: rgb(38, 50, 56); transform-origin: 380.675px 220.985px;" id="elix6tzxf0bl8" class="animable"></rect><rect x="393.3" y="217.77" width="6.43" height="6.43" style="fill: rgb(38, 50, 56); transform-origin: 396.515px 220.985px;" id="el86rlh6c1f2s" class="animable"></rect><rect x="409.43" y="217.48" width="6.43" height="6.43" style="fill: rgb(233, 30, 99); transform-origin: 412.645px 220.695px;" id="elhsg542v7ag" class="animable"></rect><rect x="424.97" y="217.77" width="6.43" height="6.43" style="fill: rgb(38, 50, 56); transform-origin: 428.185px 220.985px;" id="ely20n1prd2y" class="animable"></rect><rect x="440.81" y="217.77" width="6.43" height="6.43" style="fill: rgb(38, 50, 56); transform-origin: 444.025px 220.985px;" id="el0603a8vfkh5l" class="animable"></rect><rect x="456.65" y="217.77" width="6.43" height="6.43" style="fill: rgb(38, 50, 56); transform-origin: 459.865px 220.985px;" id="elx3q474m7lw8" class="animable"></rect><rect x="361.62" y="231.45" width="6.43" height="6.43" style="fill: rgb(38, 50, 56); transform-origin: 364.835px 234.665px;" id="elkj1ikptjx3" class="animable"></rect><rect x="377.46" y="231.45" width="6.43" height="6.43" style="fill: rgb(38, 50, 56); transform-origin: 380.675px 234.665px;" id="elgd8e3z5u3g9" class="animable"></rect><rect x="393.3" y="231.45" width="6.43" height="6.43" style="fill: rgb(38, 50, 56); transform-origin: 396.515px 234.665px;" id="elt82vorzzq2" class="animable"></rect><rect x="409.13" y="231.45" width="6.43" height="6.43" style="fill: rgb(38, 50, 56); transform-origin: 412.345px 234.665px;" id="el58v6smzrv0h" class="animable"></rect><rect x="424.97" y="231.45" width="6.43" height="6.43" style="fill: rgb(38, 50, 56); transform-origin: 428.185px 234.665px;" id="ela8h8xyf1w4k" class="animable"></rect><rect x="441.1" y="231.16" width="6.43" height="6.43" style="fill: rgb(233, 30, 99); transform-origin: 444.315px 234.375px;" id="elmwraj8mc4e" class="animable"></rect><rect x="456.65" y="231.45" width="6.43" height="6.43" style="fill: rgb(38, 50, 56); transform-origin: 459.865px 234.665px;" id="elrtb32snh9n" class="animable"></rect></g><defs>     <filter id="active" height="200%">         <feMorphology in="SourceAlpha" result="DILATED" operator="dilate" radius="2"></feMorphology>                <feFlood flood-color="#32DFEC" flood-opacity="1" result="PINK"></feFlood>        <feComposite in="PINK" in2="DILATED" operator="in" result="OUTLINE"></feComposite>        <feMerge>            <feMergeNode in="OUTLINE"></feMergeNode>            <feMergeNode in="SourceGraphic"></feMergeNode>        </feMerge>    </filter>    <filter id="hover" height="200%">        <feMorphology in="SourceAlpha" result="DILATED" operator="dilate" radius="2"></feMorphology>                <feFlood flood-color="#ff0000" flood-opacity="0.5" result="PINK"></feFlood>        <feComposite in="PINK" in2="DILATED" operator="in" result="OUTLINE"></feComposite>        <feMerge>            <feMergeNode in="OUTLINE"></feMergeNode>            <feMergeNode in="SourceGraphic"></feMergeNode>        </feMerge>            <feColorMatrix type="matrix" values="0   0   0   0   0                0   1   0   0   0                0   0   0   0   0                0   0   0   1   0 "></feColorMatrix>    </filter></defs></svg>
